<svg width="333" height="239" viewBox="0 0 333 239" fill="none" xmlns="http://www.w3.org/2000/svg">
<path d="M161.342 235.903L6.46587 144.369C1.53679 141.604 -2.692 137.052 2.1114 134.08L157.535 44.4946C159.869 43.0491 163.407 42.1064 165.777 43.48L328.374 137.833C333.303 140.697 334.192 148.697 329.272 151.561L181.776 235.759C178.677 237.559 175.162 238.519 171.578 238.544C167.994 238.569 164.466 237.659 161.342 235.903Z" fill="white"/>
<path d="M170.006 98.0771L151.25 100.214C151.25 100.214 159.403 135.93 160.848 131.638C161.692 129.142 165.633 117.91 168.74 109.049C169.399 105.423 169.821 101.758 170.006 98.0771Z" fill="#122840"/>
<path d="M141.554 154.443C141.554 154.443 140.387 157.72 141.266 159.722C142.146 161.724 147.848 166.734 147.21 169.661C146.573 172.588 145.468 172.902 141.823 171.771C138.178 170.64 137.271 170.263 135.628 167.39C133.985 164.517 133.832 161.482 131.866 160.072L130.528 160.889C130.528 160.889 125.429 156.966 125.258 154.497C125.088 152.028 133.599 147.871 133.976 147.826C134.353 147.781 141.554 154.443 141.554 154.443Z" fill="#0B0F12"/>
<path d="M166.109 179.501C166.109 179.501 169.009 186.029 171.918 188.83C174.827 191.631 177.305 196.192 177 198.158C176.842 198.949 176.415 199.66 175.791 200.171C175.167 200.682 174.385 200.961 173.579 200.959C172.232 201.067 167.357 200.96 164.664 198.571C161.97 196.183 158.136 189.036 158.136 189.036V191.73C158.136 191.73 154.545 189.449 153.575 187.788V176.386" fill="#0B0F12"/>
<path d="M159.331 135.095C158.487 128.541 158.011 121.915 157.535 115.342C157.041 108.232 156.709 101.121 156.493 94.001C156.062 100.51 153.638 113.448 152.049 115.064C144.409 122.839 130.501 146.201 130.25 148.796C129.72 154.703 141.967 155.628 141.967 155.628C141.967 155.628 148.296 148.814 158.945 132.033C158.918 131.737 159.331 135.373 159.331 135.095Z" fill="#122840"/>
<path d="M138.546 94.405C139.057 96.4521 145.728 128.918 146.473 133.515C147.219 138.111 153.117 180.803 154.913 182.339C156.709 183.874 163.891 184.386 167.698 180.291C167.698 180.291 164.376 141.433 163.864 136.298C163.353 131.162 162.59 91.9719 161.817 91.7654C161.045 91.5589 138.546 94.405 138.546 94.405Z" fill="#1F354D"/>
<path d="M189.758 38.5869C189.758 38.5869 196.312 33.9002 196.797 30.1024C196.92 29.0095 196.703 27.9052 196.174 26.9408C195.645 25.9764 194.831 25.1991 193.843 24.7154L189.354 30.1024" fill="#DA7F7B"/>
<path d="M188.24 27.4897C187.54 27.4897 186.095 25.694 185.619 25.1912C184.817 24.3039 184.151 23.3024 183.644 22.2194C180.815 16.1052 184.604 7.85414 191.652 7.40522C192.152 7.37647 192.652 7.37647 193.152 7.40522C197.775 7.6207 201.304 12.2266 201.726 16.581C201.91 18.7675 201.533 20.9648 200.63 22.9646C200.177 23.9187 199.57 24.7921 198.835 25.5504C198.332 26.0801 196.833 27.7052 196.061 27.6872L188.24 27.4897Z" fill="#FBB03B"/>
<path d="M190.476 27.9655L189.578 15.7371C189.578 15.7371 187.935 12.7383 186.786 14.8393C185.637 16.9402 188.025 18.3498 192.891 18.1433C197.757 17.9368 198.646 15.6383 197.578 14.7495C196.509 13.8606 194.75 15.0907 194.66 15.7191C194.57 16.3476 193.565 27.9655 193.565 27.9655" stroke="#F2F2F2" stroke-width="0.5075" stroke-miterlimit="10"/>
<path d="M197.129 27.2922H187.343C186.753 27.2922 186.274 27.7705 186.274 28.3606V29.034C186.274 29.624 186.753 30.1024 187.343 30.1024H197.129C197.719 30.1024 198.198 29.624 198.198 29.034V28.3606C198.198 27.7705 197.719 27.2922 197.129 27.2922Z" fill="#F2F2F2"/>
<path d="M197.129 30.1024H187.343C186.753 30.1024 186.274 30.5807 186.274 31.1708V31.8442C186.274 32.4342 186.753 32.9126 187.343 32.9126H197.129C197.719 32.9126 198.198 32.4342 198.198 31.8442V31.1708C198.198 30.5807 197.719 30.1024 197.129 30.1024Z" fill="white"/>
<path d="M154.76 105.754C155.82 105.816 157.768 105.754 158.819 105.754L159.142 89.1886L160.363 105.772C164.924 105.772 170.455 103.222 172.753 97.7629C172.133 89.1258 171.092 68.1883 171.092 68.1883L143.466 69.5171L143.412 69.6877C143.419 69.9191 143.35 70.1463 143.214 70.3342C140.575 79.1957 136.49 94.1536 134.712 103.213C140.314 105.825 149.041 105.421 154.76 105.754Z" fill="#152B3F"/>
<path d="M184.883 36.7104C184.883 36.7104 185.933 31.5299 185.933 31.1528C185.933 30.7757 187.37 26.3584 188.806 26.2597C190.243 26.1609 193.295 26.3584 193.7 27.2203C194.104 28.0823 191.59 28.8993 189.956 28.9172C189.956 28.9172 192.541 31.8172 191.59 35.2739C190.84 37.4991 189.351 39.4003 187.37 40.6609" fill="#DA7F7B"/>
<path d="M145.944 80.0397C148.125 79.9589 154.204 81.4852 158.343 81.18C162.338 80.9988 166.293 80.2924 170.104 79.079C170.257 78.3428 170.401 77.5797 170.508 76.7357C173.256 55.502 172.528 40.607 170.508 37.2311C168.488 33.8553 156.421 31.2067 150.927 32.742C145.432 34.2773 137.172 40.6698 137.172 40.6698C137.172 40.6698 139.434 58.6803 143.457 71.4924C144.633 75.0837 144.633 75.0837 145.944 80.0397Z" fill="#152B3F"/>
<path d="M170.544 37.2491C173.063 41.6292 175.095 46.2717 176.605 51.0936C176.605 51.0936 183.293 35.0494 184.586 35.2739C185.879 35.4983 190.341 38.2816 190.709 40.1401C191.078 41.9986 184.083 66.6979 175.518 68.9246C166.953 71.1512 162.123 52.0992 162.123 52.0992" fill="#152B3F"/>
<path d="M130.986 82.9666L159.645 95.9223L160.372 122.319L158.137 123.216C158.137 123.216 127.009 109.453 127.009 108.905C127.009 108.357 130.986 82.9666 130.986 82.9666Z" fill="#CE4823"/>
<path d="M153.943 93.3635C154.206 93.1065 154.363 92.7606 154.383 92.3938C154.778 86.6567 155.102 78.7648 147.596 77.9388C142.28 77.3552 137.639 80.4347 136.498 85.4716L130.959 82.9666C130.851 83.6759 141.131 103.464 143.484 103.087C145.836 102.71 159.645 95.9044 159.645 95.9044L153.943 93.3635ZM139.273 86.7285C139.417 85.7446 139.769 84.8027 140.306 83.9658C140.843 83.1289 141.553 82.4163 142.387 81.8758C143.222 81.3352 144.162 80.9791 145.146 80.8312C146.129 80.6833 147.133 80.7471 148.089 81.0183C152.776 82.2214 151.681 88.587 151.411 92.2143L139.273 86.7285Z" fill="#AD361A"/>
<path d="M150.505 76.6369L146.016 75.0837C143.726 74.2846 140.629 77.1218 141.105 79.3125C141.32 80.3001 142.55 82.0957 143.951 83.8016C144.785 83.5024 145.66 83.3329 146.545 83.2988C147.237 83.3527 147.623 83.7747 148.233 83.9722C148.455 84.1398 148.67 84.3134 148.88 84.4929C150.58 84.5767 151.478 83.8794 151.573 82.401C151.579 82.3099 151.594 82.2196 151.618 82.1317C150.236 80.5515 148.736 78.8905 149.293 78.9533C150.271 79.0611 154.895 80.0487 154.68 78.9533C154.464 77.858 150.505 76.6369 150.505 76.6369Z" fill="#DA7F7B"/>
<path d="M142.272 83.245C142.607 83.5009 142.968 83.7206 143.349 83.9004C144.13 83.8196 144.956 83.4605 145.791 83.3348C145.208 82.4369 142.442 78.4685 141.697 78.1273C140.952 77.7862 141.042 79.8781 141.042 79.8781C141.042 79.8781 141.616 81.575 142.272 83.245Z" fill="#F67770"/>
<path d="M137.405 40.4364C137.405 40.4364 123.947 56.6961 122.519 62.4692C121.092 68.2422 139.578 82.2214 139.578 82.2214L146.321 75.0388C146.321 75.0388 134.344 63.6992 136.059 61.9664C137.773 60.2336 146.985 51.5785 146.985 51.5785" fill="#152B3F"/>
<path d="M146.986 34.5915C146.986 34.5915 148.566 37.0516 149.113 38.0302C160.929 59.0843 164.96 77.5348 164.188 76.1341C164.188 76.1341 163.73 38.6497 163.38 37.2132C162.536 33.7117 161.279 32.9934 161.279 32.9934C161.279 32.9934 155.03 29.2315 146.986 34.5915Z" fill="white"/>
<path d="M148.314 33.7386L152.498 38.8742C152.965 38.4702 156.502 34.5826 156.502 34.5826L159.6 37.6531L160.884 32.9216C160.884 32.9216 153.333 31.0002 148.314 33.7386Z" fill="#D5D5D5"/>
<path d="M153.71 37.4736C154.717 38.3283 155.775 39.1199 156.88 39.8438C157.149 39.8438 159.043 37.0695 159.043 37.0695L156.502 34.5736L153.71 37.4736Z" fill="#D83E3A"/>
<path d="M156.377 38.2367C156.233 38.4342 157.957 56.3549 157.957 56.3549L164.358 76.6818L163.865 55.3853L157.014 38.2277L156.377 38.2367Z" fill="#D83E3A"/>
<path d="M150.819 27.2922L152.247 32.9126C152.247 32.9126 152.588 34.5107 156.511 34.5736C156.511 34.5736 159.043 34.8788 159.052 32.5624C159.052 31.7993 159.052 28.6928 159.052 28.6928" fill="#DA7F7B"/>
<path d="M153.504 24.9129C152.678 24.1767 150.945 22.8479 151.08 21.5281C151.17 21.4245 151.251 21.3133 151.322 21.1959C151.647 20.6254 151.735 19.9501 151.567 19.3154C151.399 18.6807 150.989 18.1373 150.424 17.8021C150.207 17.6954 149.999 17.5692 149.805 17.425C151.906 16.5272 151.556 12.6845 148.754 12.6665C148.191 12.6782 147.635 12.8008 147.119 13.0273C146.602 13.2538 146.136 13.5798 145.746 13.9867C145.355 14.3936 145.049 14.8734 144.845 15.3986C144.64 15.9239 144.541 16.4843 144.552 17.0479C144.565 17.7614 144.719 18.4654 145.005 19.1189C145.292 19.7724 145.706 20.3624 146.222 20.8547C145.989 23.9702 147.677 26.3674 149.984 28.4324C150.457 28.8841 151.086 29.1361 151.74 29.1361C152.393 29.1361 153.022 28.8841 153.495 28.4324C153.959 27.9648 154.22 27.3332 154.222 26.6745C154.223 26.0158 153.965 25.3829 153.504 24.9129Z" fill="#200904"/>
<path d="M167.007 14.956L166.881 14.8572C165.983 13.9594 166.962 11.5173 165.409 9.91017C163.856 8.30306 162.832 10.404 161.396 9.37148C159.959 8.33897 156.125 6.42659 152.884 7.76436C149.643 9.10213 149.697 12.0111 147.946 12.3164C147.227 12.3738 146.55 12.6822 146.035 13.1877C145.52 13.6931 145.198 14.3634 145.127 15.0817C144.974 16.204 146.923 23.3776 148.655 27.2024C149.465 27.9124 150.412 28.4473 151.439 28.7736L164.646 21.8872C165.588 21.1563 166.428 20.3016 167.142 19.3464C167.497 18.6643 167.672 17.9024 167.648 17.1336C167.624 16.3648 167.404 15.6149 167.007 14.956Z" fill="#200904"/>
<path d="M164.071 16.7786C164.736 17.4879 162.554 31.5389 158.271 32.0417C153.989 32.5445 150.433 27.2922 149.984 25.6043C149.535 23.9163 148.314 14.525 150.047 13.6721C151.78 12.8191 160.067 12.46 164.071 16.7786Z" fill="#DA7F7B"/>
<path d="M162.069 12.7024C162.069 12.7024 162.913 15.9705 157.795 16.581C152.678 17.1916 152.336 18.3767 151.735 20.1724C150.595 23.5392 147.012 27.4538 145.782 17.3442C145.719 16.8594 149.374 9.92813 153.369 9.38943C157.364 8.85073 162.069 12.7024 162.069 12.7024Z" fill="#200904"/>
<path d="M151.25 21.9501C151.25 21.9501 149.643 19.1848 148.404 20.5046C147.165 21.8244 148.502 24.0959 150.199 25.0835" fill="#DA7F7B"/>
<path d="M161.961 24.482C163.31 24.482 164.403 23.3886 164.403 22.0399C164.403 20.6911 163.31 19.5978 161.961 19.5978C160.612 19.5978 159.519 20.6911 159.519 22.0399C159.519 23.3886 160.612 24.482 161.961 24.482Z" stroke="black" stroke-width="0.5075" stroke-miterlimit="10"/>
<path d="M155.47 24.482C156.818 24.482 157.912 23.3886 157.912 22.0399C157.912 20.6911 156.818 19.5978 155.47 19.5978C154.121 19.5978 153.028 20.6911 153.028 22.0399C153.028 23.3886 154.121 24.482 155.47 24.482Z" stroke="black" stroke-width="0.5075" stroke-miterlimit="10"/>
<path d="M159.519 22.0399H157.912" stroke="black" stroke-width="0.5075" stroke-miterlimit="10"/>
<path d="M151.079 21.5281L153.055 21.7526" stroke="black" stroke-width="0.5075" stroke-miterlimit="10"/>
<path opacity="0.32" d="M279.586 137.618C271.784 142.852 264.323 147.584 256.916 152.333C264.835 156.373 275.77 162.101 281.211 165.208C286.302 162.245 303.657 151.74 309.825 146.273L279.586 137.618Z" fill="url(#paint0_linear)"/>
<path d="M296.531 151.938C305.967 151.655 313.455 146.039 313.256 139.394C313.056 132.75 305.245 127.593 295.809 127.876C286.373 128.159 278.885 133.775 279.084 140.419C279.284 147.064 287.095 152.221 296.531 151.938Z" fill="#68E1FD"/>
<path d="M296.363 137.188C303.425 136.958 309.074 134.426 308.98 131.532C308.886 128.638 303.085 126.477 296.022 126.707C288.96 126.936 283.311 129.468 283.405 132.363C283.499 135.257 289.301 137.417 296.363 137.188Z" fill="#974C26"/>
<path d="M297.049 132.033C298.01 130.588 298.97 129.07 299.976 127.382C301.26 125.219 302.454 123.001 303.567 120.738C304.584 118.714 305.44 116.612 306.126 114.454C306.896 112.105 307.496 109.705 307.922 107.271C308.029 106.633 308.128 105.996 308.209 105.359C308.209 105.062 308.254 105.098 308.254 105.134C308.254 105.17 308.254 104.928 308.254 104.586C308.326 103.294 308.371 102.001 308.344 100.699C308.259 96.2107 307.251 91.7881 305.381 87.7072C300.98 94.5542 298.113 102.273 296.977 110.333C296.905 110.811 296.836 111.293 296.771 111.778C296.771 111.778 296.672 112.676 296.627 113.008C296.582 113.34 296.537 114.121 296.528 114.22C296.486 114.819 296.45 115.417 296.42 116.016C296.313 118.377 296.304 120.738 296.42 123.109C296.483 126.152 296.699 129.097 297.049 132.033ZM301.341 96.5598C301.64 96.2007 301.939 95.8475 302.238 95.5004C302.174 95.7962 302.174 96.1023 302.238 96.3982C301.932 96.4077 301.629 96.4653 301.341 96.5688V96.5598Z" fill="#999A1C"/>
<path d="M297.381 132.24C297.381 130.507 297.381 128.711 297.327 126.745C297.237 124.231 297.049 121.717 296.735 119.221C296.497 116.974 296.082 114.75 295.496 112.568C294.876 110.186 294.087 107.852 293.134 105.583C292.883 104.99 292.614 104.398 292.344 103.787C292.218 103.518 292.245 103.545 292.263 103.572L291.985 103.096C291.348 101.965 290.683 100.851 289.956 99.774C287.458 96.0435 284.219 92.868 280.439 90.4456C280.438 98.585 282.2 106.628 285.601 114.023C285.799 114.466 286.003 114.908 286.212 115.351L286.76 116.465L287.334 117.533C287.628 118.072 287.927 118.608 288.232 119.14C289.417 121.187 290.692 123.18 292.03 125.129C293.718 127.625 295.514 129.95 297.381 132.24ZM281.822 100.079C281.875 99.6124 281.944 99.1485 282.028 98.6876C282.127 98.9826 282.289 99.2523 282.504 99.4777C282.247 99.6415 282.016 99.8444 281.822 100.079Z" fill="#999A1C"/>
<path d="M297.498 133.137C296.959 132.195 296.367 131.225 295.702 130.193C294.804 128.864 293.906 127.571 292.955 126.323C292.1 125.185 291.158 124.116 290.136 123.127C289.033 122.041 287.853 121.036 286.607 120.119C286.284 119.876 285.943 119.652 285.61 119.419C285.458 119.311 285.476 119.32 285.503 119.329L285.197 119.158C284.488 118.754 283.77 118.368 283.034 118.018C280.482 116.813 277.71 116.147 274.89 116.061C277.517 120.455 281.064 124.228 285.287 127.122L286.041 127.643L286.697 128.065L287.352 128.46L288.358 129.034C289.657 129.759 290.985 130.426 292.344 131.036C294.005 131.818 295.747 132.5 297.498 133.137ZM278.742 120.81C278.622 120.541 278.509 120.269 278.401 119.993C278.55 120.119 278.724 120.211 278.913 120.263C278.828 120.435 278.77 120.62 278.742 120.81Z" fill="#999A1C"/>
<path d="M297.049 132.033C298.01 130.588 298.97 129.07 299.976 127.382C301.26 125.219 302.454 123.001 303.567 120.738C304.584 118.714 305.44 116.612 306.126 114.454C306.896 112.105 307.496 109.705 307.922 107.271C308.029 106.633 308.128 105.996 308.209 105.359C308.209 105.062 308.254 105.098 308.254 105.134C308.254 105.17 308.254 104.928 308.254 104.586C308.326 103.294 308.371 102.001 308.344 100.699C308.259 96.2107 307.251 91.7881 305.381 87.7072C300.98 94.5542 298.113 102.273 296.977 110.333C296.905 110.811 296.836 111.293 296.771 111.778C296.771 111.778 296.672 112.676 296.627 113.008C296.582 113.34 296.537 114.121 296.528 114.22C296.486 114.819 296.45 115.417 296.42 116.016C296.313 118.377 296.304 120.738 296.42 123.109C296.483 126.152 296.699 129.097 297.049 132.033ZM301.341 96.5598C301.64 96.2007 301.939 95.8475 302.238 95.5004C302.174 95.7962 302.174 96.1023 302.238 96.3982C301.932 96.4077 301.629 96.4653 301.341 96.5688V96.5598Z" fill="#999A1C"/>
<path d="M297.381 132.24C297.381 130.507 297.381 128.711 297.327 126.745C297.237 124.231 297.049 121.717 296.735 119.221C296.497 116.974 296.082 114.75 295.496 112.568C294.876 110.186 294.087 107.852 293.134 105.583C292.883 104.99 292.614 104.398 292.344 103.787C292.218 103.518 292.245 103.545 292.263 103.572L291.985 103.096C291.348 101.965 290.683 100.851 289.956 99.774C287.458 96.0435 284.219 92.868 280.439 90.4456C280.438 98.585 282.2 106.628 285.601 114.023C285.799 114.466 286.003 114.908 286.212 115.351L286.76 116.465L287.334 117.533C287.628 118.072 287.927 118.608 288.232 119.14C289.417 121.187 290.692 123.18 292.03 125.129C293.718 127.625 295.514 129.95 297.381 132.24ZM281.822 100.079C281.875 99.6124 281.944 99.1485 282.028 98.6876C282.127 98.9826 282.289 99.2523 282.504 99.4777C282.247 99.6415 282.016 99.8444 281.822 100.079Z" fill="#999A1C"/>
<path d="M297.498 133.137C296.959 132.195 296.367 131.225 295.702 130.193C294.804 128.864 293.906 127.571 292.955 126.323C292.1 125.185 291.158 124.116 290.136 123.127C289.033 122.041 287.853 121.036 286.607 120.119C286.284 119.876 285.943 119.652 285.61 119.419C285.458 119.311 285.476 119.32 285.503 119.329L285.197 119.158C284.488 118.754 283.77 118.368 283.034 118.018C280.482 116.813 277.71 116.147 274.89 116.061C277.517 120.455 281.064 124.228 285.287 127.122L286.041 127.643L286.697 128.065L287.352 128.46L288.358 129.034C289.657 129.759 290.985 130.426 292.344 131.036C294.005 131.818 295.747 132.5 297.498 133.137ZM278.742 120.81C278.622 120.541 278.509 120.269 278.401 119.993C278.55 120.119 278.724 120.211 278.913 120.263C278.828 120.435 278.77 120.62 278.742 120.81Z" fill="#999A1C"/>
<path d="M207.042 82.5806L215.212 105.161L251.753 84.2146L243.915 61.1583" fill="#68E1FD"/>
<path d="M207.042 82.5806L233.231 83.8286L243.915 61.1583L207.042 82.5806Z" fill="#F9847F"/>
<path d="M260.66 46.5057L276.12 69.6698L309.744 38.9011L290.593 10.4938" fill="#68E1FD"/>
<path d="M260.66 46.5057L282.603 44.6113L290.593 10.4938L260.66 46.5057Z" fill="#F9847F"/>
<path d="M74.7549 51.345L60.5692 43.8033L26.5504 63.4478V137.061L40.5655 145.168" fill="#68E1FD"/>
<path opacity="0.31" d="M74.7549 51.345L60.5692 43.8033L26.5504 63.4478V137.061L40.5655 145.168" fill="#152B3F"/>
<path d="M40.5656 145.168C41.634 145.079 40.5656 71.0883 40.5656 71.0883L74.7549 51.3091V125.91L40.5656 145.168Z" fill="#68E1FD"/>
<path d="M74.7549 65.2704L40.7361 84.4121L26.5504 77.1936" stroke="#F2F2F2" stroke-width="0.25375" stroke-miterlimit="10"/>
<path d="M74.7549 84.4121L40.7361 103.563L26.5504 96.3353" stroke="#F2F2F2" stroke-width="0.25375" stroke-miterlimit="10"/>
<path d="M74.7549 101.65L40.7361 120.801L26.5504 113.574" stroke="#F2F2F2" stroke-width="0.25375" stroke-miterlimit="10"/>
<path d="M74.7549 119.041L40.7361 138.192L26.5504 130.965" stroke="#F2F2F2" stroke-width="0.25375" stroke-miterlimit="10"/>
<path d="M40.5655 71.0883L26.5504 63.4478L60.5692 43.8033L74.7549 51.345L40.5655 71.0883Z" fill="#68E1FD"/>
<path opacity="0.43" d="M40.5655 71.0883L26.5504 63.4478L60.5692 43.8033L74.7549 51.345L40.5655 71.0883Z" fill="white"/>
<path d="M48.9215 74.3059C49.4442 73.0304 49.0123 71.6458 47.957 71.2134C46.9017 70.781 45.6225 71.4645 45.0999 72.7401C44.5772 74.0157 45.0091 75.4002 46.0644 75.8326C47.1197 76.265 48.3989 75.5815 48.9215 74.3059Z" fill="white"/>
<path d="M70.2569 60.7992L52.0758 70.801C51.6987 71.0075 52.0758 71.5911 52.417 71.3846L70.5981 61.3828C70.9751 61.1763 70.5981 60.5927 70.2569 60.7992Z" fill="#F2F2F2"/>
<path d="M48.9194 91.0422C49.442 89.7667 49.0101 88.3821 47.9548 87.9497C46.8995 87.5173 45.6203 88.2008 45.0977 89.4764C44.575 90.752 45.0069 92.1366 46.0622 92.569C47.1175 93.0013 48.3967 92.3178 48.9194 91.0422Z" fill="white"/>
<path d="M70.2569 77.5437L52.0758 87.5366C51.6987 87.7431 52.0758 88.3267 52.417 88.1202L70.5981 78.1273C70.9751 77.9208 70.5981 77.3372 70.2569 77.5437Z" fill="#F2F2F2"/>
<path d="M48.9269 109.337C49.4496 108.062 49.0177 106.677 47.9624 106.245C46.9071 105.812 45.6279 106.496 45.1052 107.771C44.5826 109.047 45.0145 110.431 46.0698 110.864C47.1251 111.296 48.4043 110.613 48.9269 109.337Z" fill="white"/>
<path d="M70.2569 95.8325L52.0758 105.834C51.6987 106.041 52.0758 106.624 52.417 106.418L70.5981 96.4251C70.9751 96.2186 70.5981 95.635 70.2569 95.8415V95.8325Z" fill="#F2F2F2"/>
<path d="M48.9259 125.951C49.4486 124.675 49.0167 123.29 47.9614 122.858C46.9061 122.426 45.6269 123.109 45.1043 124.385C44.5816 125.66 45.0135 127.045 46.0688 127.477C47.1241 127.91 48.4033 127.226 48.9259 125.951Z" fill="white"/>
<path d="M70.2569 112.442L52.0758 122.444C51.6987 122.651 52.0758 123.234 52.417 123.028L70.5981 113.035C70.9751 112.828 70.5981 112.245 70.2569 112.451V112.442Z" fill="#F2F2F2"/>
<path d="M197.632 1.10245L196.905 3.72412C196.812 4.10118 196.87 4.49959 197.066 4.83454C197.263 5.16949 197.582 5.41453 197.957 5.5175C198.331 5.62047 198.731 5.57323 199.071 5.38585C199.411 5.19846 199.665 4.88572 199.778 4.51421L200.514 1.88357C200.618 1.50138 200.565 1.09371 200.368 0.750221C200.171 0.406734 199.846 0.155574 199.464 0.0519917C199.081 -0.0515903 198.674 0.000891424 198.33 0.197891C197.987 0.394891 197.736 0.720272 197.632 1.10245Z" fill="#FBB03B"/>
<path d="M206.332 2.75446L202.193 6.48944C200.9 7.65662 202.803 9.56001 204.087 8.40181L208.226 4.66684C209.519 3.49966 207.616 1.59626 206.332 2.75446Z" fill="#FBB03B"/>
<path d="M207.365 11.9213C207.259 11.5851 207.026 11.3033 206.716 11.1357C206.406 10.9681 206.043 10.9279 205.704 11.0235C205.149 11.2277 204.578 11.3868 203.998 11.4993C203.662 11.6052 203.38 11.8378 203.212 12.1478C203.045 12.4579 203.004 12.8211 203.1 13.1603C203.21 13.4939 203.443 13.7729 203.752 13.9398C204.061 14.1068 204.422 14.1491 204.761 14.0581C205.341 13.9456 205.912 13.7865 206.467 13.5823C206.799 13.4708 207.077 13.2373 207.243 12.9289C207.41 12.6206 207.453 12.2604 207.365 11.9213Z" fill="#FBB03B"/>
<defs>
<linearGradient id="paint0_linear" x1="17371.1" y1="5437.53" x2="17581.6" y2="4812.42" gradientUnits="userSpaceOnUse">
<stop stop-color="#AA4200" stop-opacity="0"/>
<stop offset="0.98" stop-color="#AA003D"/>
</linearGradient>
</defs>
</svg>
