<svg width="392" height="290" viewBox="0 0 392 290" fill="none" xmlns="http://www.w3.org/2000/svg">
<path d="M190.194 286.257L7.77839 178.454C1.97259 175.186 -3.01106 169.837 2.65264 166.345L185.728 60.785C188.479 59.0798 192.65 57.9633 195.442 59.5873L386.932 170.75C392.737 174.12 393.783 183.539 387.947 186.919L214.27 286.115C210.616 288.232 206.474 289.359 202.251 289.384C198.028 289.409 193.872 288.331 190.194 286.257V286.257Z" fill="#3189FF"/>
<path d="M322.672 215.552C327.005 215.552 330.518 213.903 330.518 211.868C330.518 209.833 327.005 208.183 322.672 208.183C318.339 208.183 314.826 209.833 314.826 211.868C314.826 213.903 318.339 215.552 322.672 215.552Z" fill="#484887"/>
<path d="M330.518 207.189V211.868H314.826V207.189" fill="#484887"/>
<path d="M322.672 210.873C327.005 210.873 330.518 209.223 330.518 207.189C330.518 205.154 327.005 203.504 322.672 203.504C318.339 203.504 314.826 205.154 314.826 207.189C314.826 209.223 318.339 210.873 322.672 210.873Z" fill="#6969BC"/>
<path d="M324.712 139.366V205.534C324.712 205.534 322.977 208.518 320.652 205.534V137.133C320.652 137.133 320.997 135.195 324.712 139.366Z" fill="#484887"/>
<path d="M245.745 175.064C250.078 175.064 253.591 173.414 253.591 171.379C253.591 169.345 250.078 167.695 245.745 167.695C241.412 167.695 237.899 169.345 237.899 171.379C237.899 173.414 241.412 175.064 245.745 175.064Z" fill="#484887"/>
<path d="M253.601 166.69V171.379H237.899V166.69" fill="#484887"/>
<path d="M245.745 170.375C250.078 170.375 253.591 168.725 253.591 166.69C253.591 164.655 250.078 163.006 245.745 163.006C241.412 163.006 237.899 164.655 237.899 166.69C237.899 168.725 241.412 170.375 245.745 170.375Z" fill="#6969BC"/>
<path d="M247.765 98.8779V165.046C247.765 165.046 246.029 168.03 243.705 165.046V96.6449C243.705 96.6449 244.07 94.7063 247.765 98.8779Z" fill="#484887"/>
<path d="M334.71 83.6123L240.203 30.132C239.445 29.7022 238.586 29.479 237.714 29.4847C236.842 29.4904 235.987 29.7249 235.234 30.1646C234.481 30.6043 233.856 31.2339 233.423 31.9905C232.989 32.7471 232.762 33.6042 232.763 34.4762V92.5545C232.762 93.4376 232.995 94.3052 233.439 95.0685C233.883 95.8318 234.522 96.4634 235.291 96.8987L329.797 150.379C330.556 150.809 331.414 151.032 332.286 151.026C333.158 151.021 334.014 150.786 334.767 150.346C335.52 149.907 336.144 149.277 336.578 148.521C337.011 147.764 337.239 146.907 337.237 146.035V87.9464C337.237 87.065 337.003 86.1995 336.559 85.4381C336.115 84.6768 335.477 84.0467 334.71 83.6123Z" fill="#68E1FD"/>
<path d="M245.735 90.22C245.735 90.22 252.718 63.5458 265.02 70.5188C277.322 77.4919 271.506 105.374 280.164 104.897C288.822 104.42 298.677 86.6269 306.127 90.2504C313.578 93.874 313.344 126.202 322.713 131.277" fill="white"/>
<path d="M246.537 55.0908L256.575 85.9671L275.018 73.6653L282.884 100.319L296.992 93.0924L308.462 115.382L325.128 114.915" stroke="#42210B" stroke-width="0.76125" stroke-miterlimit="10"/>
<path d="M325.537 118.261C326.705 118.117 327.468 116.508 327.241 114.666C327.015 112.825 325.884 111.448 324.715 111.592C323.547 111.736 322.784 113.346 323.01 115.187C323.237 117.029 324.368 118.405 325.537 118.261Z" fill="#89562C"/>
<path d="M246.942 58.4319C248.11 58.2881 248.874 56.6785 248.647 54.837C248.42 52.9954 247.289 51.6191 246.121 51.763C244.952 51.9069 244.189 53.5164 244.416 55.358C244.643 57.1995 245.774 58.5758 246.942 58.4319Z" fill="#89562C"/>
<path d="M70.5967 108.622C70.6678 108.774 71.0535 110.216 71.358 109.911C71.6625 109.607 73.256 110.297 73.256 110.297L77.7017 104.643L77.113 102.796H73.1038" fill="#68E1FD"/>
<path d="M92.064 84.2721L92.47 82.8004L97.139 80.2527V72.2951C97.139 72.1428 92.6222 74.9544 92.6222 74.9544L92.47 74.5078C92.2171 73.2898 91.7534 72.1253 91.0997 71.0669L94.3883 64.9769L90.1659 61.8L87.0397 68.0625C85.9019 67.7989 84.7166 67.8198 83.5887 68.1235V62.135L77.5901 65.454V71.747C76.4171 72.8713 75.3502 74.1012 74.403 75.4213L70.7997 73.1173L66.7397 80.8617L69.9674 83.4296L69.6934 84.7288C69.2708 86.101 68.9319 87.4975 68.6784 88.9106L63.8876 91.5496V99.4768L68.4551 96.7566C68.6524 98.1989 69.1541 99.5829 69.9268 100.817L66.5063 106.622L70.8403 109.901L73.8853 103.922H77.6713V109.901L83.335 106.46V100.583C84.6437 99.3007 85.7985 97.8701 86.7758 96.3202L90.2065 98.6648L94.3477 90.7579L90.9475 88.19L91.2824 87.0025C91.5869 86.0788 91.8508 85.145 92.064 84.2721Z" fill="#68E1FD"/>
<path d="M102.904 75.604L97.616 72.4067L96.2965 74.3657L98.3468 78.6388" fill="#68E1FD"/>
<path d="M95.992 101.953L92.0741 100.329V97.9644" fill="#68E1FD"/>
<path d="M83.406 113.22L77.6611 109.911L79.1227 105.567L84.2891 107.079L83.406 113.22Z" fill="#68E1FD"/>
<path d="M90.1659 61.8101L95.9108 65.119L92.7542 71.4019L89.3133 71.4628L88.5115 65.119L90.1659 61.8101Z" fill="#68E1FD"/>
<path d="M89.0514 90.161C89.9513 87.8705 89.6023 85.59 88.2719 85.0673C86.9414 84.5445 85.1334 85.9775 84.2335 88.268C83.3335 90.5584 83.6825 92.839 85.013 93.3617C86.3434 93.8845 88.1515 92.4514 89.0514 90.161Z" fill="#68E1FD"/>
<path d="M77.5901 65.454L83.335 68.7629L89.3133 65.4438L83.5583 62.135L77.5901 65.454Z" fill="#68E1FD"/>
<path d="M76.5345 76.4262L70.7896 73.1071L66.7194 80.8617L72.4643 84.1706L76.5345 76.4262Z" fill="#68E1FD"/>
<path d="M66.4962 106.633L72.2411 109.941L76.5751 113.22L70.8302 109.911L66.4962 106.633Z" fill="#68E1FD"/>
<path opacity="0.44" d="M70.5967 108.622C70.6678 108.774 71.0535 110.216 71.358 109.911C71.6625 109.607 73.256 110.297 73.256 110.297L77.7017 104.643L77.113 102.796H73.1038" fill="#053855"/>
<path d="M92.064 84.2721L92.47 82.8004L97.139 80.2527V72.2951C97.139 72.1428 92.6222 74.9544 92.6222 74.9544L92.47 74.5078C92.2171 73.2898 91.7534 72.1253 91.0997 71.0669L94.3883 64.9769L90.1659 61.8L87.0397 68.0625C85.9019 67.7989 84.7166 67.8198 83.5887 68.1235V62.135L77.5901 65.454V71.747C76.4171 72.8713 75.3502 74.1012 74.403 75.4213L70.7997 73.1173L66.7397 80.8617L69.9674 83.4296L69.6934 84.7288C69.2708 86.101 68.9319 87.4975 68.6784 88.9106L63.8876 91.5496V99.4768L68.4551 96.7566C68.6524 98.1989 69.1541 99.5829 69.9268 100.817L66.5063 106.622L70.8403 109.901L73.8853 103.922H77.6713V109.901L83.335 106.46V100.583C84.6437 99.3007 85.7985 97.8701 86.7758 96.3202L90.2065 98.6648L94.3477 90.7579L90.9475 88.19L91.2824 87.0025C91.5869 86.0788 91.8508 85.145 92.064 84.2721Z" fill="#68E1FD"/>
<path opacity="0.44" d="M102.904 75.604L97.616 72.4067L96.2965 74.3657L98.3468 78.6388" fill="#053855"/>
<path d="M95.992 101.953L92.0741 100.329V97.9644" fill="#68E1FD"/>
<path d="M83.406 113.22L77.6611 109.911L79.1227 105.567L84.2891 107.079L83.406 113.22Z" fill="#68E1FD"/>
<path d="M90.1659 61.8101L95.9108 65.119L92.7542 71.4019L89.3133 71.4628L88.5115 65.119L90.1659 61.8101Z" fill="#68E1FD"/>
<path d="M89.0514 90.161C89.9513 87.8705 89.6023 85.59 88.2719 85.0673C86.9414 84.5445 85.1334 85.9775 84.2335 88.268C83.3335 90.5584 83.6825 92.839 85.013 93.3617C86.3434 93.8845 88.1515 92.4514 89.0514 90.161Z" fill="#68E1FD"/>
<path d="M76.5345 76.4262L70.7896 73.1071L66.7194 80.8617L72.4643 84.1706L76.5345 76.4262Z" fill="#68E1FD"/>
<path d="M66.4962 106.633L72.2411 109.941L76.5751 113.22L70.8302 109.911L66.4962 106.633Z" fill="#68E1FD"/>
<path opacity="0.44" d="M92.064 84.2721L92.47 82.8004L97.139 80.2527V72.2951C97.139 72.1428 92.6222 74.9544 92.6222 74.9544L92.47 74.5078C92.2171 73.2898 91.7534 72.1253 91.0997 71.0669L94.3883 64.9769L90.1659 61.8L87.0397 68.0625C85.9019 67.7989 84.7166 67.8198 83.5887 68.1235V62.135L77.5901 65.454V71.747C76.4171 72.8713 75.3502 74.1012 74.403 75.4213L70.7997 73.1173L66.7397 80.8617L69.9674 83.4296L69.6934 84.7288C69.2708 86.101 68.9319 87.4975 68.6784 88.9106L63.8876 91.5496V99.4768L68.4551 96.7566C68.6524 98.1989 69.1541 99.5829 69.9268 100.817L66.5063 106.622L70.8403 109.901L73.8853 103.922H77.6713V109.901L83.335 106.46V100.583C84.6437 99.3007 85.7985 97.8701 86.7758 96.3202L90.2065 98.6648L94.3477 90.7579L90.9475 88.19L91.2824 87.0025C91.5869 86.0788 91.8508 85.145 92.064 84.2721Z" fill="#053855"/>
<path opacity="0.1" d="M95.992 101.953L92.0741 100.329V97.9644" fill="#053855"/>
<path opacity="0.1" d="M83.406 113.22L77.6611 109.911L79.1227 105.567L84.2891 107.079L83.406 113.22Z" fill="#053855"/>
<path opacity="0.1" d="M89.0514 90.161C89.9513 87.8705 89.6023 85.59 88.2719 85.0673C86.9414 84.5445 85.1334 85.9775 84.2335 88.268C83.3335 90.5584 83.6825 92.839 85.013 93.3617C86.3434 93.8845 88.1515 92.4514 89.0514 90.161Z" fill="#053855"/>
<path opacity="0.1" d="M76.5345 76.4262L70.7896 73.1071L66.7194 80.8617L72.4643 84.1706L76.5345 76.4262Z" fill="#053855"/>
<path opacity="0.1" d="M66.4962 106.633L72.2411 109.941L76.5751 113.22L70.8302 109.911L66.4962 106.633Z" fill="#053855"/>
<path opacity="0.1" d="M95.992 101.953L92.0741 100.329V97.9644" fill="#053855"/>
<path opacity="0.44" d="M83.406 113.22L77.6611 109.911L79.1227 105.567L84.2891 107.079L83.406 113.22Z" fill="#053855"/>
<path d="M97.8089 87.581L98.225 86.1092L102.894 83.5616V75.604C102.894 75.4517 98.3773 78.2633 98.3773 78.2633L98.1641 77.8167C97.9113 76.5987 97.4476 75.4342 96.7939 74.3758L100.082 68.2858L95.9007 65.1089L92.7745 71.3715C91.6366 71.1078 90.4513 71.1287 89.3235 71.4323V65.4438L83.335 68.7629V75.0559C82.162 76.1802 81.0952 77.4101 80.1479 78.7302L76.5345 76.4262L72.4745 84.1706L75.7022 86.7385L75.4281 88.0377C75.0056 89.4099 74.6667 90.8064 74.4131 92.2196L69.6223 94.8585V102.786L74.2 100.065C74.3973 101.508 74.899 102.892 75.6717 104.125L72.2512 109.931L76.5852 113.21L79.6302 107.231H83.4162V113.21L89.1205 109.728V103.851C90.4293 102.569 91.584 101.138 92.5613 99.5885L95.992 101.933L100.133 94.0262L96.6924 91.4887L97.0273 90.3012C97.3318 89.3979 97.5957 88.4844 97.8089 87.581Z" fill="#68E1FD"/>
<path opacity="0.44" d="M89.0514 90.161C89.9513 87.8705 89.6023 85.59 88.2719 85.0673C86.9414 84.5445 85.1334 85.9775 84.2335 88.268C83.3335 90.5584 83.6825 92.839 85.013 93.3617C86.3434 93.8845 88.1515 92.4514 89.0514 90.161Z" fill="#053855"/>
<path opacity="0.44" d="M66.4962 106.633L72.2411 109.941L76.5751 113.22L70.8302 109.911L66.4962 106.633Z" fill="#053855"/>
<path d="M77.5901 65.454L83.335 68.7629L89.3133 65.4438L83.5583 62.135L77.5901 65.454Z" fill="#68E1FD"/>
<path opacity="0.44" d="M77.5901 65.4337L83.3147 68.7629L89.3133 65.4743L83.5786 62.135L77.5901 65.4337Z" fill="#053855"/>
<path d="M63.8774 91.5496L69.6223 94.8687V102.796L63.8774 99.4768V91.5496Z" fill="#68E1FD"/>
<path opacity="0.44" d="M63.8774 91.5496L69.6223 94.8687V102.796L63.8774 99.4768V91.5496Z" fill="#053855"/>
<path d="M177.314 3.945L176.573 95.6604C176.565 96.6318 176.812 97.5882 177.289 98.4342C177.767 99.2802 178.458 99.9862 179.293 100.482L220.37 124.842C220.879 125.148 221.46 125.313 222.054 125.32C222.648 125.327 223.233 125.177 223.75 124.883C224.266 124.59 224.696 124.165 224.993 123.651C225.291 123.137 225.447 122.553 225.445 121.959V29.391C225.446 28.3983 225.185 27.4228 224.69 26.5623C224.195 25.7019 223.482 24.9868 222.623 24.4886L182.358 1.1436C181.856 0.848522 181.285 0.689629 180.703 0.682616C180.12 0.675602 179.545 0.82071 179.036 1.10361C178.527 1.3865 178.1 1.7974 177.798 2.29571C177.496 2.79402 177.329 3.3625 177.314 3.945V3.945Z" fill="#68E1FD"/>
<path d="M215.417 66.4081V101.669L208.109 97.396L208.038 62.1451L215.417 66.4081Z" fill="#5FAD00"/>
<path d="M203.135 53.3856L203.267 94.8281L195.604 90.3824V49.1328L203.135 53.3856Z" fill="#F8997C"/>
<path d="M190.763 42.18L190.884 87.9058L184.064 83.9473V38.0998L190.763 42.18Z" fill="white"/>
<path d="M214.777 105.993C214.783 106.292 214.708 106.587 214.561 106.848C214.414 107.109 214.201 107.326 213.943 107.477C213.684 107.628 213.39 107.707 213.091 107.707C212.792 107.706 212.498 107.626 212.24 107.475L180.846 89.5602C180.588 89.4135 180.373 89.2009 180.223 88.9442C180.073 88.6875 179.994 88.3958 179.993 88.0987V88.0987C179.994 87.8042 180.072 87.515 180.219 87.2599C180.366 87.0049 180.578 86.7928 180.832 86.6449C181.087 86.4971 181.376 86.4185 181.67 86.4171C181.965 86.4158 182.255 86.4916 182.511 86.637L213.925 104.531C214.183 104.678 214.398 104.891 214.548 105.148C214.698 105.404 214.777 105.696 214.777 105.993Z" fill="#FFE427"/>
<path d="M221.619 37.1659V49.8839C221.618 50.1971 221.535 50.5046 221.378 50.7756C221.221 51.0466 220.995 51.2715 220.724 51.4278C220.452 51.5841 220.144 51.6662 219.831 51.666C219.518 51.6658 219.21 51.5833 218.939 51.4267L184.378 31.4616C184.107 31.3052 183.882 31.0804 183.725 30.8096C183.569 30.5389 183.486 30.2317 183.485 29.9188V17.211C183.486 16.8978 183.569 16.5903 183.726 16.3193C183.883 16.0484 184.109 15.8235 184.38 15.6672C184.652 15.5109 184.959 15.4287 185.273 15.4289C185.586 15.4291 185.893 15.5116 186.165 15.6682L220.736 35.6231C221.005 35.7809 221.228 36.0062 221.383 36.2769C221.538 36.5476 221.619 36.8541 221.619 37.1659Z" fill="#FFE427"/>
<path d="M215.588 45.7136C217.961 44.9606 219.121 41.9463 218.18 38.981C217.238 36.0156 214.552 34.2221 212.18 34.9751C209.808 35.7281 208.647 38.7424 209.589 41.7078C210.53 44.6731 213.216 46.4666 215.588 45.7136Z" fill="white"/>
<path d="M208.424 32.4969L188.205 21.2C187.352 20.7229 186.581 22.0323 187.433 22.5195L207.642 33.8367C208.495 34.3138 209.266 33.0044 208.413 32.5172L208.424 32.4969Z" fill="#7F47DD"/>
<path d="M207.662 37.44L195.107 30.406C194.254 29.929 193.483 31.2383 194.335 31.7255L206.891 38.7595C207.744 39.2365 208.515 37.9272 207.662 37.44Z" fill="#7F47DD"/>
<path d="M102.001 61.0996C102.062 61.2214 102.366 62.3582 102.6 62.1146C102.833 61.871 104.102 62.4191 104.102 62.4191L107.634 57.9329L107.167 56.4712H103.99" fill="#68E1FD"/>
<path d="M119.053 41.7537L119.388 40.5865L123.103 38.5565V32.2432C123.103 32.1214 119.51 34.3544 119.51 34.3544L119.337 33.9991C119.137 33.0328 118.769 32.1088 118.251 31.2688L120.89 26.4475L117.571 23.9202L115.084 28.8937C114.185 28.6689 113.243 28.6689 112.344 28.8937V24.1739L107.593 26.8028V31.7966C106.659 32.6908 105.81 33.6694 105.056 34.7198L102.194 32.8928L98.9558 39.0437L101.514 41.0737L101.29 42.0887C100.959 43.1814 100.695 44.2932 100.499 45.4179L96.6619 47.59V53.883L100.296 51.65C100.45 52.7968 100.848 53.8973 101.463 54.8777L98.7427 59.4959L102.184 62.1045L104.65 57.3746H107.695V62.1248L112.222 59.364V54.695C113.261 53.675 114.177 52.5373 114.952 51.3049L117.683 53.1725L120.89 46.8896L118.16 44.8596L118.434 43.9157C118.677 43.195 118.86 42.515 119.053 41.7537Z" fill="#68E1FD"/>
<path d="M127.66 34.872L123.468 32.3345L122.412 33.8875L124.036 37.2877" fill="#68E1FD"/>
<path d="M122.169 55.8013L119.063 54.5123V52.6345" fill="#68E1FD"/>
<path d="M112.181 64.7536L107.614 62.1248L108.771 58.6738L112.882 59.8816L112.181 64.7536Z" fill="#68E1FD"/>
<path d="M117.551 23.9202L122.108 26.549L119.601 31.5428L116.871 31.5834L116.231 26.549L117.551 23.9202Z" fill="#68E1FD"/>
<path d="M116.662 46.4382C117.378 44.6173 117.099 42.8038 116.04 42.3877C114.981 41.9716 113.542 43.1103 112.827 44.9312C112.111 46.7521 112.39 48.5655 113.449 48.9817C114.508 49.3978 115.947 48.2591 116.662 46.4382Z" fill="#68E1FD"/>
<path d="M107.553 26.8129L112.12 29.4418L116.871 26.8129L112.303 24.1739L107.553 26.8129Z" fill="#68E1FD"/>
<path d="M106.721 35.5318L102.163 32.8928L98.9254 39.0538L103.493 41.6827L106.721 35.5318Z" fill="#68E1FD"/>
<path d="M98.7427 59.5162L103.31 62.1451L106.751 64.7537L102.194 62.1248L98.7427 59.5162Z" fill="#68E1FD"/>
<path opacity="0.44" d="M102.001 61.0996C102.062 61.2214 102.366 62.3582 102.6 62.1146C102.833 61.871 104.102 62.4191 104.102 62.4191L107.634 57.9329L107.167 56.4712H103.99" fill="#053855"/>
<path d="M119.053 41.7537L119.388 40.5865L123.103 38.5565V32.2432C123.103 32.1214 119.51 34.3544 119.51 34.3544L119.337 33.9991C119.137 33.0328 118.769 32.1088 118.251 31.2688L120.89 26.4475L117.571 23.9202L115.084 28.8937C114.185 28.6689 113.243 28.6689 112.344 28.8937V24.1739L107.593 26.8028V31.7966C106.659 32.6908 105.81 33.6694 105.056 34.7198L102.194 32.8928L98.9558 39.0437L101.514 41.0737L101.29 42.0887C100.959 43.1814 100.695 44.2932 100.499 45.4179L96.6619 47.59V53.883L100.296 51.65C100.45 52.7968 100.848 53.8973 101.463 54.8777L98.7427 59.4959L102.184 62.1045L104.65 57.3746H107.695V62.1248L112.222 59.364V54.695C113.261 53.675 114.177 52.5373 114.952 51.3049L117.683 53.1725L120.89 46.8896L118.16 44.8596L118.434 43.9157C118.677 43.195 118.86 42.515 119.053 41.7537Z" fill="#68E1FD"/>
<path opacity="0.44" d="M127.66 34.872L123.468 32.3345L122.412 33.8875L124.036 37.2877" fill="#053855"/>
<path d="M122.169 55.8013L119.063 54.5123V52.6345" fill="#68E1FD"/>
<path d="M112.181 64.7536L107.614 62.1248L108.771 58.6738L112.882 59.8816L112.181 64.7536Z" fill="#68E1FD"/>
<path d="M117.551 23.9202L122.108 26.549L119.601 31.5428L116.871 31.5834L116.231 26.549L117.551 23.9202Z" fill="#68E1FD"/>
<path d="M116.662 46.4382C117.378 44.6173 117.099 42.8038 116.04 42.3877C114.981 41.9716 113.542 43.1103 112.827 44.9312C112.111 46.7521 112.39 48.5655 113.449 48.9817C114.508 49.3978 115.947 48.2591 116.662 46.4382Z" fill="#68E1FD"/>
<path d="M106.721 35.5318L102.163 32.8928L98.9254 39.0538L103.493 41.6827L106.721 35.5318Z" fill="#68E1FD"/>
<path d="M98.7427 59.5162L103.31 62.1451L106.751 64.7537L102.194 62.1248L98.7427 59.5162Z" fill="#68E1FD"/>
<path opacity="0.44" d="M119.053 41.7537L119.388 40.5865L123.103 38.5565V32.2432C123.103 32.1214 119.51 34.3544 119.51 34.3544L119.337 33.9991C119.137 33.0328 118.769 32.1088 118.251 31.2688L120.89 26.4475L117.571 23.9202L115.084 28.8937C114.185 28.6689 113.243 28.6689 112.344 28.8937V24.1739L107.593 26.8028V31.7966C106.659 32.6908 105.81 33.6694 105.056 34.7198L102.194 32.8928L98.9558 39.0437L101.514 41.0737L101.29 42.0887C100.959 43.1814 100.695 44.2932 100.499 45.4179L96.6619 47.59V53.883L100.296 51.65C100.45 52.7968 100.848 53.8973 101.463 54.8777L98.7427 59.4959L102.184 62.1045L104.65 57.3746H107.695V62.1248L112.222 59.364V54.695C113.261 53.675 114.177 52.5373 114.952 51.3049L117.683 53.1725L120.89 46.8896L118.16 44.8596L118.434 43.9157C118.677 43.195 118.86 42.515 119.053 41.7537Z" fill="#053855"/>
<path opacity="0.1" d="M122.169 55.8013L119.063 54.5123V52.6345" fill="#053855"/>
<path opacity="0.1" d="M112.181 64.7536L107.614 62.1248L108.771 58.6738L112.882 59.8816L112.181 64.7536Z" fill="#053855"/>
<path opacity="0.1" d="M116.662 46.4382C117.378 44.6173 117.099 42.8038 116.04 42.3877C114.981 41.9716 113.542 43.1103 112.827 44.9312C112.111 46.7521 112.39 48.5655 113.449 48.9817C114.508 49.3978 115.947 48.2591 116.662 46.4382Z" fill="#053855"/>
<path opacity="0.1" d="M106.721 35.5318L102.163 32.8928L98.9254 39.0538L103.493 41.6827L106.721 35.5318Z" fill="#053855"/>
<path opacity="0.1" d="M98.7427 59.5162L103.31 62.1451L106.751 64.7537L102.194 62.1248L98.7427 59.5162Z" fill="#053855"/>
<path opacity="0.1" d="M122.169 55.8013L119.063 54.5123V52.6345" fill="#053855"/>
<path opacity="0.44" d="M112.181 64.7536L107.614 62.1248L108.771 58.6738L112.882 59.8816L112.181 64.7536Z" fill="#053855"/>
<path d="M123.62 44.3826L123.935 43.2255L127.65 41.1955V34.8721C127.65 34.7503 124.057 36.9832 124.057 36.9832L123.884 36.628C123.684 35.6616 123.316 34.7377 122.798 33.8976L125.417 29.0764L122.098 26.549L119.611 31.5225C118.711 31.2978 117.77 31.2978 116.871 31.5225V26.8129L112.12 29.4418V34.395C111.186 35.2892 110.337 36.2678 109.583 37.3182L106.68 35.5318L103.442 41.6827L106 43.7127L105.777 44.7277C105.446 45.8204 105.181 46.9322 104.985 48.0569L101.179 50.1579V56.451L104.802 54.289C104.957 55.4358 105.355 56.5363 105.969 57.5167L103.249 62.135L106.69 64.7435L109.106 59.9933H112.151V64.7435L116.678 61.9827V57.3137C117.717 56.2937 118.633 55.156 119.408 53.9236L122.138 55.7912L125.427 49.5083L122.697 47.4783L122.971 46.5344C123.245 45.8239 123.448 45.1032 123.62 44.3826Z" fill="#68E1FD"/>
<path opacity="0.44" d="M116.662 46.4382C117.378 44.6173 117.099 42.8038 116.04 42.3877C114.981 41.9716 113.542 43.1103 112.827 44.9312C112.111 46.7521 112.39 48.5655 113.449 48.9817C114.508 49.3978 115.947 48.2591 116.662 46.4382Z" fill="#053855"/>
<path opacity="0.44" d="M98.7427 59.5162L103.31 62.1451L106.751 64.7537L102.194 62.1248L98.7427 59.5162Z" fill="#053855"/>
<path d="M107.553 26.8129L112.12 29.4418L116.871 26.8129L112.303 24.1739L107.553 26.8129Z" fill="#68E1FD"/>
<path opacity="0.44" d="M107.553 26.7926L112.11 29.4418L116.871 26.8231L112.313 24.1841L107.553 26.7926Z" fill="#053855"/>
<path d="M96.6721 47.5392L101.229 50.1681V56.4712L96.6721 53.8424V47.5392Z" fill="#68E1FD"/>
<path opacity="0.44" d="M96.6721 47.5392L101.229 50.1681V56.4712L96.6721 53.8424V47.5392Z" fill="#053855"/>
<path d="M169.427 166.893C165.053 163.848 159.907 162.163 154.344 163.391C148.417 164.691 143.291 168.466 137.252 169.329C136.298 169.471 132.491 169.228 131.903 169.776C115.104 185.671 162.058 183.986 162.058 183.986C166.616 180.251 170.909 176.576 175.426 172.821C174.066 169.735 171.772 168.527 169.427 166.893Z" fill="#F8997C"/>
<path d="M147.28 189.934L145.615 237.892C145.554 239.709 148.376 239.709 148.437 237.892L150.102 189.934C150.213 188.117 147.392 188.117 147.28 189.934Z" fill="#F8997C"/>
<path d="M182.531 215.593C173.978 207.222 165.807 198.49 158.019 189.396C156.831 188.015 154.842 190.015 155.989 191.426C163.77 200.513 171.941 209.246 180.501 217.623C181.79 218.871 183.82 216.872 182.531 215.593Z" fill="#F8997C"/>
<path d="M137.526 185.498C130.888 198.03 124.635 210.751 118.769 223.662C118.018 225.306 120.454 226.707 121.205 225.093C127.071 212.182 133.324 199.461 139.962 186.929C140.814 185.315 138.378 183.884 137.526 185.498Z" fill="#F8997C"/>
<path d="M179.679 155.556C179.679 155.556 185.769 156.804 187.159 158.174C188.55 159.544 190.773 165.279 190.154 167.015C189.534 168.751 187.789 166 187.038 164.904C186.15 163.738 185.194 162.627 184.175 161.574C182.169 161.884 180.115 161.612 178.258 160.793" fill="#FCBF81"/>
<path d="M181.719 207.483C182.602 206.58 183.17 205.585 182.866 204.6C182.328 202.834 179.933 202.124 178.298 202.215C176.664 202.306 174.959 203.139 173.305 203.636C171.57 204.259 169.719 204.487 167.885 204.306C167.588 204.266 167.317 204.118 167.123 203.89C166.614 203.768 166.145 203.518 165.761 203.162C165.377 202.807 165.091 202.358 164.931 201.86L159.46 199.931C159.46 199.931 158.069 211.411 158.12 212.213C158.526 218.404 167.773 214.872 167.773 214.872C167.773 214.872 168.098 212.071 168.189 211.695C168.28 211.32 171.823 212.416 173.264 212.193C173.941 212.004 174.582 211.706 175.162 211.31C176.258 210.711 177.324 210.061 178.39 209.411C179.455 208.762 180.623 208.143 181.719 207.483Z" fill="#E55600"/>
<path d="M161.49 165.127C159.46 165.33 157.43 165.594 155.4 165.878C156.246 178.911 157.183 191.933 158.212 204.945C163.49 207.107 165.631 206.103 168.91 202.753C169.529 190.329 170.625 177.317 170.584 164.772C167.509 164.904 164.535 165.036 161.49 165.127Z" fill="#34323D"/>
<path d="M139.495 161.544C139.495 161.544 138.622 175.805 145.788 178.992C152.954 182.179 167.661 180.585 174.888 176.343C178.628 174.065 182.553 172.106 186.621 170.486C186.621 170.486 188.479 164.244 183.972 161.544C179.466 158.844 169.498 155.515 160.627 161.544" fill="#34323D"/>
<path d="M170.94 122.375C171.164 121.839 171.429 121.319 171.731 120.822C171.74 120.854 171.757 120.882 171.782 120.903C171.79 120.944 171.81 120.981 171.84 121.01C171.87 121.039 171.908 121.058 171.949 121.064C171.99 121.071 172.031 121.065 172.069 121.047C172.106 121.029 172.137 121 172.158 120.964L172.736 120.091C172.716 120.206 172.716 120.322 172.736 120.437C172.783 120.65 172.907 120.838 173.086 120.964C173.265 121.09 173.484 121.144 173.7 121.117C173.827 121.108 173.951 121.07 174.062 121.008C174.173 120.946 174.269 120.859 174.342 120.756C174.416 120.652 174.466 120.533 174.488 120.408C174.511 120.282 174.505 120.153 174.472 120.031L174.736 119.726C174.722 119.813 174.722 119.903 174.736 119.99C174.776 120.112 174.846 120.222 174.94 120.31C175.034 120.398 175.149 120.46 175.273 120.491C175.398 120.523 175.528 120.522 175.653 120.49C175.777 120.457 175.891 120.393 175.984 120.305C176.086 120.223 176.177 120.122 176.268 120.031C176.348 120.065 176.435 120.083 176.522 120.083C176.609 120.083 176.696 120.065 176.776 120.031C177.521 119.777 178.249 119.479 178.958 119.137C178.909 119.116 178.865 119.083 178.831 119.041C178.797 119 178.773 118.95 178.762 118.898C178.751 118.845 178.753 118.79 178.768 118.738C178.782 118.686 178.809 118.639 178.846 118.599C179.683 117.923 180.568 117.308 181.496 116.762C181.528 116.735 181.566 116.714 181.607 116.701L181.658 116.61C181.875 115.906 181.825 115.147 181.516 114.479C181.74 114.206 181.899 113.886 181.982 113.544C182.064 113.201 182.068 112.844 181.993 112.499C181.918 112.494 181.847 112.466 181.79 112.418C181.658 112.305 181.545 112.171 181.455 112.022C181.292 111.819 181.165 111.589 181.079 111.342C181.059 111.28 181.058 111.213 181.078 111.151C181.098 111.089 181.138 111.035 181.191 110.997C180.846 110.54 180.44 110.104 180.085 109.698C180.954 108.216 181.368 106.511 181.272 104.795C181.264 104.635 181.205 104.482 181.104 104.357C181.002 104.233 180.864 104.145 180.708 104.105C180.553 104.065 180.388 104.076 180.24 104.137C180.091 104.197 179.966 104.303 179.882 104.44C179.54 104.979 179.232 105.539 178.958 106.115C178.868 106.173 178.795 106.254 178.745 106.348C177.278 109.361 175.648 112.292 173.863 115.128C173.558 115.605 169.803 120.721 170.27 120.843C170.239 121.086 167.194 128.1 170.94 122.375ZM173.132 120.213C173.132 120.213 173.132 120.213 173.132 120.163C173.151 120.184 173.175 120.201 173.201 120.213C173.227 120.225 173.255 120.231 173.284 120.231C173.313 120.231 173.342 120.225 173.368 120.213C173.394 120.201 173.417 120.184 173.437 120.163V120.163C173.528 120.228 173.632 120.273 173.743 120.294C173.853 120.315 173.967 120.312 174.076 120.284C174.068 120.419 174.007 120.545 173.906 120.634C173.805 120.724 173.673 120.769 173.538 120.761C173.403 120.753 173.278 120.692 173.188 120.591C173.099 120.49 173.053 120.358 173.061 120.223L173.132 120.213Z" fill="#FCBF81"/>
<path d="M171.346 120.751C172.16 120.128 172.849 119.357 173.376 118.478C173.475 118.293 173.611 118.131 173.774 118C173.938 117.869 174.126 117.772 174.328 117.715C174.529 117.658 174.74 117.643 174.948 117.669C175.156 117.695 175.356 117.763 175.538 117.869C175.596 117.458 175.627 117.045 175.629 116.63C175.629 114.519 178.948 114.489 178.907 116.63C178.982 118.287 178.539 119.926 177.639 121.32C176.645 122.576 175.435 123.645 174.066 124.476C173.824 124.612 173.553 124.685 173.276 124.691C172.999 124.697 172.725 124.634 172.479 124.509C172.232 124.383 172.02 124.199 171.861 123.972C171.702 123.745 171.602 123.482 171.569 123.207L171.427 123.096C171.267 122.948 171.138 122.769 171.047 122.571C170.957 122.373 170.906 122.158 170.899 121.94C170.891 121.723 170.927 121.505 171.004 121.301C171.08 121.097 171.196 120.91 171.346 120.751V120.751Z" fill="#FCBF81"/>
<path d="M153.167 128.617C153.167 128.617 162.738 129.074 165.235 126.78C167.732 124.486 171.325 117.27 171.325 117.27C171.325 117.27 177.923 121.512 178.248 123.948C178.572 126.384 171.356 138.158 168.148 138.981" fill="#BA3E00"/>
<path d="M198.274 216.425C199.157 215.522 199.725 214.527 199.421 213.543C198.883 211.776 196.487 211.066 194.853 211.157C193.219 211.249 191.514 212.081 189.859 212.578C188.125 213.201 186.273 213.43 184.439 213.248C184.143 213.209 183.871 213.06 183.678 212.832C183.169 212.711 182.7 212.46 182.316 212.104C181.932 211.749 181.646 211.3 181.485 210.802L176.055 208.853C176.055 208.853 174.685 220.343 174.685 221.155C175.091 227.347 184.338 223.814 184.338 223.814C184.338 223.814 184.662 221.013 184.754 220.637C184.845 220.262 188.387 221.358 189.829 221.135C190.506 220.946 191.147 220.648 191.727 220.252C192.823 219.653 193.889 219.003 194.955 218.354C196.02 217.704 197.177 217.095 198.274 216.425Z" fill="#E55600"/>
<path d="M177.375 161.899C175.507 161.016 173.548 161.108 171.285 161.118C171.599 165.706 171.427 167.36 171.711 171.948L171.792 173.166C172.655 186.747 173.67 200.317 174.685 213.877C179.963 216.039 182.105 215.035 185.383 211.685C186.114 197.231 187.474 181.966 186.946 167.583C183.932 164.559 181.222 163.706 177.375 161.899Z" fill="#34323D"/>
<path d="M139.363 158.59C139.363 158.946 139.434 160.123 139.485 161.544C142.449 165.452 146.082 167.746 151.776 167.573C156.385 167.441 160.231 165.421 163.845 162.935C163.398 154.581 162.048 140.32 159.937 130.373C159.754 129.531 157.572 128.973 156.892 128.617C155.39 127.795 156.273 126.384 154.801 125.501C152.667 124.261 150.445 123.179 148.153 122.264H148.092C144.418 122.213 138.094 125.035 137.719 129.947C137.14 137.509 137.972 142.056 138.561 149.598C138.845 152.643 139.109 155.647 139.363 158.59Z" fill="#E55600"/>
<path d="M152.152 107.972C152.639 108.094 156.709 117.473 155.116 123.197C153.522 128.922 143.849 123.035 141.413 118.701C138.977 114.367 142.997 105.597 152.152 107.972Z" fill="#FCBF81"/>
<path d="M152.02 109.282C152.02 109.282 152.02 112.377 149.32 113.342C146.62 114.306 144.367 115.016 144.509 116.265C144.651 117.513 149.401 116.092 149.422 118.955C149.425 120.886 149.165 122.808 148.65 124.669C148.356 126.07 140.226 121.766 137.546 114.428C134.867 107.089 141.606 105.14 141.9 105.09C142.195 105.039 142.834 103.06 146.123 102.329C149.411 101.598 150.335 102.887 150.335 102.887C151.082 102.437 151.956 102.244 152.823 102.337C153.69 102.431 154.502 102.806 155.136 103.405C158.181 105.81 157.4 110.205 153.969 111.992L152.02 109.282Z" fill="#34323D"/>
<path d="M153.695 138.351C153.695 138.351 163.753 156.723 169.316 158.306C173.306 159.349 177.383 160.028 181.496 160.336C181.496 160.336 182.186 155.261 181.496 153.048C181.496 153.048 172.594 149.039 171.721 146.634C170.848 144.228 163.347 127.349 154.832 125.562" fill="#E55600"/>
<path d="M162.952 152.632C162.332 151.841 155.359 143.944 155.359 143.944L163.743 161.118L162.952 152.632Z" fill="#34323D"/>
<path d="M174.786 172.435C172.167 176.084 168.456 178.806 164.19 180.21C158.212 182.027 149.513 181.174 146.377 174.922C140.662 163.544 146.032 149.313 139.992 138.25C139.296 136.852 138.312 135.616 137.105 134.624C135.898 133.633 134.496 132.907 132.989 132.495C129.071 131.642 126.391 134.575 124.97 138.037C122.423 144.238 122.514 151.973 122.646 158.57C122.651 163.909 123.038 169.242 123.803 174.526C123.803 174.526 127.457 196.693 155.979 190.766C160.915 189.87 165.656 188.114 169.986 185.579C172.21 184.286 174.153 182.56 175.7 180.504C177.446 178.058 176.289 175.044 174.786 172.435Z" fill="#68E1FD"/>
<path d="M45.0695 154.104C40.6035 153.718 35.9345 152.368 32.6154 149.313V162.508C32.6154 166.148 34.0612 169.638 36.6348 172.212C39.2083 174.785 42.6987 176.231 46.3382 176.231C49.9778 176.231 53.4682 174.785 56.0417 172.212C58.6153 169.638 60.061 166.148 60.061 162.508V149.09C55.3819 151.008 50.0633 154.541 45.0695 154.104Z" fill="#68E1FD"/>
<path d="M46.3382 156.51C53.9171 156.51 60.061 153.251 60.061 149.232C60.061 145.213 53.9171 141.955 46.3382 141.955C38.7594 141.955 32.6154 145.213 32.6154 149.232C32.6154 153.251 38.7594 156.51 46.3382 156.51Z" fill="#5ED18D"/>
<path d="M46.3382 150.47C46.3382 150.47 37.0002 149.1 34.5338 133.997C34.5338 133.997 42.4914 138.392 46.3382 150.47Z" fill="#5ED18D"/>
<path d="M47.7085 148.542C47.7085 148.542 37.0003 129.328 47.7085 116.417C50.9805 126.875 50.9805 138.084 47.7085 148.542V148.542Z" fill="#5ED18D"/>
<path d="M46.3382 136.463C46.3382 136.463 37.0002 135.093 34.5338 119.99C34.5338 119.99 42.4914 124.385 46.3382 136.463Z" fill="#5ED18D"/>
<path d="M47.475 142.624C47.475 142.624 45.1405 133.489 58.1122 125.369C58.1122 125.369 57.1277 134.413 47.475 142.624Z" fill="#5ED18D"/>
<path d="M46.3382 156.51C53.9171 156.51 60.061 153.251 60.061 149.232C60.061 145.213 53.9171 141.955 46.3382 141.955C38.7594 141.955 32.6154 145.213 32.6154 149.232C32.6154 153.251 38.7594 156.51 46.3382 156.51Z" fill="#146666"/>
<path d="M46.3382 150.47C46.3382 150.47 37.0002 149.1 34.5338 133.997C34.5338 133.997 42.4914 138.392 46.3382 150.47Z" fill="#5ED18D"/>
<path d="M47.7085 148.542C47.7085 148.542 37.0003 129.328 47.7085 116.417C50.9805 126.875 50.9805 138.084 47.7085 148.542V148.542Z" fill="#5ED18D"/>
<path d="M46.3382 136.463C46.3382 136.463 37.0002 135.093 34.5338 119.99C34.5338 119.99 42.4914 124.385 46.3382 136.463Z" fill="#5ED18D"/>
<path d="M47.475 142.624C47.475 142.624 45.1405 133.489 58.1122 125.369C58.1122 125.369 57.1277 134.413 47.475 142.624Z" fill="#5ED18D"/>
</svg>
