<svg width="392" height="285" viewBox="0 0 392 285" fill="none" xmlns="http://www.w3.org/2000/svg">
<path d="M190.032 281.463L7.61607 173.65C1.81027 170.432 -3.17338 165.033 2.49032 161.521L185.566 55.9607C188.317 54.2555 192.488 53.139 195.279 54.763L386.769 165.946C392.575 169.316 393.621 178.735 387.784 182.115L214.108 281.291C210.457 283.412 206.315 284.544 202.093 284.575C197.87 284.605 193.713 283.532 190.032 281.463Z" fill="#3189FF"/>
<path d="M368.083 178.928L334.598 198.903L314.938 186.002L348.118 168.392" fill="url(#paint0_linear)"/>
<path d="M176.908 133.974L196.193 143.241C196.918 143.588 197.535 144.127 197.977 144.798C198.42 145.47 198.67 146.25 198.703 147.054C198.735 147.857 198.548 148.655 198.161 149.36C197.774 150.065 197.203 150.651 196.508 151.056L150.883 177.669C149.897 178.246 148.727 178.418 147.617 178.152C146.506 177.885 145.542 177.199 144.925 176.238L133.841 158.983" fill="#56403D"/>
<path d="M72.1904 89.3948L225.709 0.927413C226.762 0.319695 227.956 -0.000164957 229.171 6.38206e-08C230.387 0.000165085 231.581 0.320349 232.633 0.928353C233.685 1.53636 234.559 2.41075 235.167 3.46359C235.774 4.51644 236.093 5.71063 236.093 6.92606V98.9257C236.092 99.9363 235.825 100.929 235.319 101.804C234.813 102.679 234.086 103.405 233.21 103.909L69.5717 198.396C69.0069 198.722 68.3663 198.893 67.7141 198.893C67.062 198.893 66.4214 198.722 65.8566 198.396C65.2919 198.069 64.8229 197.6 64.4969 197.036C64.1709 196.471 63.9993 195.83 63.9993 195.178V103.564C63.9984 100.691 64.7551 97.8679 66.1932 95.3802C67.6312 92.8925 69.6998 90.828 72.1904 89.3948V89.3948Z" fill="#68E1FD"/>
<path d="M225.689 7.9106L76.8492 93.5563C75.26 94.4714 73.9401 95.7892 73.0224 97.3769C72.1047 98.9646 71.6217 100.766 71.622 102.6V171.569C71.6212 172.23 71.7944 172.88 72.1241 173.452C72.4539 174.025 72.9285 174.501 73.5004 174.832C74.0723 175.163 74.7213 175.338 75.3821 175.339C76.043 175.34 76.6925 175.167 77.2653 174.838L229.059 87.7201C229.625 87.3953 230.096 86.9268 230.424 86.3619C230.752 85.797 230.925 85.1557 230.926 84.5025V10.9455C230.928 10.3316 230.768 9.72811 230.463 9.19579C230.157 8.66346 229.716 8.22112 229.185 7.91336C228.654 7.6056 228.051 7.44329 227.437 7.44281C226.824 7.44233 226.22 7.60368 225.689 7.9106V7.9106Z" fill="white"/>
<path d="M214.666 31.8037V91.0493C214.666 91.1839 214.612 91.3129 214.517 91.4081C214.422 91.5033 214.293 91.5568 214.158 91.5568C214.024 91.5568 213.895 91.5033 213.8 91.4081C213.704 91.3129 213.651 91.1839 213.651 91.0493V31.8037C213.651 31.6691 213.704 31.54 213.8 31.4449C213.895 31.3497 214.024 31.2962 214.158 31.2962C214.293 31.2962 214.422 31.3497 214.517 31.4449C214.612 31.54 214.666 31.6691 214.666 31.8037Z" fill="#4BE2C5"/>
<path d="M192.336 45.3844V104.63C192.336 104.765 192.282 104.894 192.187 104.989C192.092 105.084 191.963 105.137 191.828 105.137C191.694 105.137 191.565 105.084 191.47 104.989C191.374 104.894 191.321 104.765 191.321 104.63V45.3844C191.321 45.2498 191.374 45.1207 191.47 45.0256C191.565 44.9304 191.694 44.8769 191.828 44.8769C191.963 44.8769 192.092 44.9304 192.187 45.0256C192.282 45.1207 192.336 45.2498 192.336 45.3844Z" fill="#4BE2C5"/>
<path d="M173.457 56.4784V115.724C173.457 115.859 173.403 115.988 173.308 116.083C173.213 116.178 173.084 116.231 172.949 116.231C172.815 116.231 172.686 116.178 172.591 116.083C172.495 115.988 172.442 115.859 172.442 115.724V56.4784C172.442 56.3438 172.495 56.2147 172.591 56.1195C172.686 56.0243 172.815 55.9709 172.949 55.9709C173.084 55.9709 173.213 56.0243 173.308 56.1195C173.403 56.2147 173.457 56.3438 173.457 56.4784Z" fill="#4BE2C5"/>
<path d="M146.762 69.8358V129.081C146.762 129.216 146.709 129.345 146.614 129.44C146.519 129.535 146.39 129.589 146.255 129.589C146.12 129.589 145.991 129.535 145.896 129.44C145.801 129.345 145.747 129.216 145.747 129.081V69.8358C145.747 69.7012 145.801 69.5721 145.896 69.4769C145.991 69.3817 146.12 69.3283 146.255 69.3283C146.39 69.3283 146.519 69.3817 146.614 69.4769C146.709 69.5721 146.762 69.7012 146.762 69.8358Z" fill="#4BE2C5"/>
<path d="M130.736 79.6813V138.967C130.736 139.102 130.682 139.231 130.587 139.326C130.492 139.421 130.363 139.475 130.228 139.475C130.093 139.475 129.964 139.421 129.869 139.326C129.774 139.231 129.721 139.102 129.721 138.967V79.6813C129.721 79.5467 129.774 79.4176 129.869 79.3224C129.964 79.2272 130.093 79.1738 130.228 79.1738C130.363 79.1738 130.492 79.2272 130.587 79.3224C130.682 79.4176 130.736 79.5467 130.736 79.6813Z" fill="#4BE2C5"/>
<path d="M103.737 93.8304V153.076C103.737 153.211 103.683 153.34 103.588 153.435C103.493 153.53 103.364 153.583 103.229 153.583C103.094 153.583 102.965 153.53 102.87 153.435C102.775 153.34 102.722 153.211 102.722 153.076V93.8304C102.722 93.6958 102.775 93.5667 102.87 93.4715C102.965 93.3763 103.094 93.3229 103.229 93.3229C103.364 93.3229 103.493 93.3763 103.588 93.4715C103.683 93.5667 103.737 93.6958 103.737 93.8304Z" fill="#4BE2C5"/>
<path d="M214.229 71.7846V79.2347L192.387 69.4704C192.387 69.4704 173.629 100.397 173.376 100.397L146.549 94.0131L130.979 120.596L93.211 112.638L94.5406 107.563L127.772 113.653L145.24 86.6746L169.864 95.0179L191.636 62.1725L214.229 71.7846Z" fill="#F26250"/>
<path d="M103.229 99.0069L96.0632 124.483L85.2737 107.685L103.229 99.0069Z" fill="#F26250"/>
<path d="M218.168 60.7515C218.736 61.1575 219.294 61.5838 219.853 62C219.55 61.5014 219.445 60.9075 219.558 60.3354C219.58 60.1333 219.661 59.9423 219.793 59.7872C219.924 59.632 220.099 59.5199 220.294 59.4652C220.49 59.4105 220.698 59.4159 220.89 59.4805C221.083 59.5452 221.252 59.6662 221.375 59.8279C222.728 61.3571 224.082 62.8796 225.435 64.3954C225.435 64.2533 225.435 64.1112 225.496 63.9792C225.546 63.0847 225.781 62.2102 226.186 61.4113C227.12 60.1324 228.094 61.4113 228.216 62.7815C228.318 64.5781 227.83 66.2528 228.703 67.9885C229.282 68.8477 230.036 69.5743 230.916 70.12C231.755 70.7966 232.608 71.4395 233.474 72.0485C233.65 72.1827 233.777 72.3707 233.837 72.5841C233.896 72.7974 233.884 73.0242 233.802 73.23C233.721 73.4359 233.574 73.6093 233.384 73.724C233.195 73.8387 232.973 73.8883 232.753 73.8653C232.85 74.0102 232.908 74.1775 232.922 74.3513C232.935 74.5251 232.904 74.6994 232.83 74.8575C232.757 75.0155 232.644 75.152 232.502 75.2538C232.361 75.3556 232.196 75.4192 232.022 75.4386C232.175 76.2912 231.231 77.2148 230.469 76.4536C228.603 74.6472 226.563 73.0289 224.379 71.6222C222.099 70.553 219.853 69.423 217.64 68.2321C216.503 67.6231 217.214 65.7453 218.401 66.334L218.574 66.4254L216.625 65.2277C215.61 64.6288 216.625 62.9033 217.64 63.4717L217.873 63.6037L218.523 63.9792L217.66 63.2484C217.132 62.7917 216.645 62.4161 216.554 61.6752C216.533 61.479 216.569 61.281 216.659 61.1053C216.749 60.9296 216.888 60.7838 217.059 60.6858C217.23 60.5878 217.426 60.5419 217.623 60.5535C217.82 60.5652 218.009 60.634 218.168 60.7515Z" fill="#FFCEA1"/>
<path d="M225.06 65.3698C225.096 65.3227 225.149 65.2919 225.208 65.2843C225.267 65.2767 225.327 65.2928 225.374 65.3292C225.421 65.3655 225.452 65.4191 225.46 65.4781C225.467 65.5371 225.451 65.5967 225.415 65.6438C225.008 66.1732 224.76 66.807 224.699 67.4717C224.638 68.1363 224.766 68.8047 225.07 69.3993C225.202 69.6632 224.785 69.8358 224.654 69.5719C224.321 68.9036 224.183 68.1555 224.255 67.4127C224.327 66.6699 224.606 65.9621 225.06 65.3698V65.3698Z" fill="#007058"/>
<path d="M219.853 61.6244C221.206 62.6462 222.529 63.7187 223.821 64.842C224.034 65.0348 223.77 65.4002 223.547 65.1972C222.268 64.0672 220.945 62.9947 219.579 61.9797C219.531 61.9433 219.501 61.8897 219.493 61.8307C219.485 61.7717 219.502 61.7121 219.538 61.665C219.574 61.6179 219.628 61.5872 219.687 61.5795C219.746 61.5719 219.805 61.5881 219.853 61.6244V61.6244Z" fill="#007058"/>
<path d="M217.934 63.3499L222.461 66.0295C222.715 66.1818 222.461 66.537 222.187 66.3848L217.66 63.7052C217.406 63.5529 217.68 63.1977 217.934 63.3499Z" fill="#007058"/>
<path d="M217.934 65.8874C219.2 66.4896 220.475 67.0716 221.761 67.6332C222.025 67.7449 221.862 68.1712 221.588 68.0494C220.303 67.4877 219.027 66.9058 217.762 66.3036C217.508 66.1412 217.67 65.7149 217.934 65.8874Z" fill="#007058"/>
<path d="M298.921 77.1742L293.054 66.537L289.664 61.0662L302.758 54.7123L311.152 71.9368L298.921 77.1742Z" fill="#F26250"/>
<path d="M285.269 75.2153L288.994 71.0741C289.297 70.8037 289.57 70.5007 289.806 70.1707C290.02 69.6149 290.106 69.0185 290.06 68.4249C290.125 67.5699 290.289 66.7253 290.547 65.9077C290.584 65.6385 290.725 65.3948 290.941 65.2301C291.158 65.0655 291.43 64.9934 291.699 65.0297C291.969 65.0661 292.212 65.2079 292.377 65.4239C292.542 65.64 292.614 65.9126 292.577 66.1818C292.577 66.7096 292.577 67.1968 292.527 67.7652L293.44 66.9532C294.668 69.176 295.917 71.3786 297.256 73.5405C296.526 73.5405 295.785 73.5913 295.044 73.5405C292.385 75.1235 290.025 77.1607 288.071 79.5595C287.961 79.684 287.82 79.7774 287.663 79.8303C287.506 79.8832 287.338 79.8937 287.175 79.8607C287.012 79.8278 286.861 79.7526 286.737 79.6427C286.613 79.5328 286.52 79.392 286.467 79.2347C286.362 79.2127 286.26 79.1786 286.162 79.1332C286.047 79.066 285.946 78.9767 285.865 78.8704C285.784 78.7641 285.725 78.6429 285.691 78.5137C285.657 78.3846 285.649 78.2499 285.667 78.1176C285.685 77.9853 285.73 77.8579 285.797 77.7426V77.7426C285.842 77.6325 285.909 77.5331 285.995 77.4509C286.08 77.3687 286.183 77.3055 286.294 77.2656C286.497 77.0321 286.7 76.7885 286.893 76.5348L286.771 76.6667C285.828 77.6208 284.386 76.1795 285.269 75.2153Z" fill="#FFCEA1"/>
<path d="M292.872 72.0383C293.281 71.4675 293.546 70.8057 293.643 70.1098C293.608 69.4149 293.344 68.7512 292.892 68.2219C292.719 67.9783 293.125 67.7449 293.288 67.9885C293.783 68.5877 294.069 69.3329 294.1 70.1098C294.004 70.8879 293.718 71.6304 293.268 72.2718C293.232 72.3133 293.183 72.3409 293.129 72.3499C293.075 72.3588 293.019 72.3484 292.972 72.3206C292.925 72.2928 292.889 72.2493 292.871 72.1977C292.852 72.1461 292.853 72.0897 292.872 72.0383V72.0383Z" fill="#007058"/>
<path d="M249.988 158.252C249.988 158.252 249.856 165.144 249.044 166.23C248.232 167.316 240.995 171.153 240.589 172.909C240.183 174.665 241.472 177.182 244.913 176.238C248.354 175.294 256.656 169.915 256.656 169.915V154.984" fill="#534741"/>
<path d="M277.677 166.109L278.56 173.589C278.56 173.589 275.393 185.13 276.662 186.52C277.931 187.911 282.498 189.433 284.275 186.52C286.051 183.607 283.513 172.828 283.513 172.828L283.392 164.708" fill="#534741"/>
<path d="M261.041 86.9284C261.041 86.9284 252.079 123.326 251.673 128.929C251.267 134.532 248.628 161.663 248.628 161.663C248.628 161.663 257.144 165.449 262.889 163.53L267.375 129.315L272.45 93.4447C272.45 93.4447 263.183 84.3401 261.041 86.9284Z" fill="#2E997F"/>
<path d="M278.256 95.5153C284.579 122.362 285.361 142.642 288.558 166.119C288.558 166.119 274.845 171.123 271.81 166.271C269.78 142.347 268.106 118.363 267.344 94.3582L278.256 95.5153Z" fill="#2E997F"/>
<path d="M276.358 67.8058C276.256 67.6941 276.155 67.5825 276.043 67.481C274.013 65.7047 269.841 66.466 266.969 67.2374C266.795 67.4184 266.585 67.5609 266.352 67.6553C266.12 67.7497 265.87 67.7941 265.619 67.7855H265.365C264.996 67.8855 264.607 67.8855 264.239 67.7855C262.209 67.7855 258.615 66.3645 255.702 68.7193C252.789 71.0741 255.54 74.7179 255.895 77.9253C256.078 79.6204 256.332 81.2647 256.545 82.8887C258.423 84.9694 260.26 87.5272 261.965 88.4204C263.163 89.0396 264.878 91.0797 266.147 91.232C266.614 91.2929 267.04 90.9579 267.487 90.7955C269.212 90.1662 270.268 81.9853 271.851 82.574C273.231 83.0917 275.322 89.476 276.682 90.0546C277.177 89.9674 277.665 89.8488 278.144 89.6993C278.926 82.3812 279.301 74.3627 276.358 67.8058Z" fill="#FFC963"/>
<path d="M269.933 97.0276C273.262 96.8246 275.109 96.7739 278.225 95.5153L278.784 77.9355L256.514 82.9191C256.514 82.9191 258.382 92.1353 259.285 96.0228C262.747 96.9856 266.352 97.3258 269.933 97.0276Z" fill="#FFC963"/>
<path d="M266.715 68.7396L263.822 72.5458L262.411 68.09L266.715 68.7396Z" fill="#2E997F"/>
<path d="M263.904 70.8508L266.715 89.4354L263.822 94.3582L261.092 88.1971L263.904 70.8508Z" fill="#2E997F"/>
<path d="M269.476 65.522C269.74 66.1919 270.278 67.349 270.613 67.9885L267.02 72.5458L264.249 68.6076L261.66 71.409L260.483 65.1465C263.481 64.7752 266.519 64.9021 269.476 65.522V65.522Z" fill="#F4AF40"/>
<path d="M260.27 58.8535C259.458 62.6902 260.097 68.4858 264.249 68.6178C268.4 68.7497 270.856 65.8062 270.582 61.3707C270.359 57.8486 268.552 52.3473 263.782 53.9409C262.616 54.387 261.664 55.2622 261.122 56.387C260.73 57.1676 260.443 57.9971 260.27 58.8535V58.8535Z" fill="#FFCEA1"/>
<path d="M259.965 59.6959C258.898 59.1477 258.017 58.2964 257.432 57.2491C256.847 56.2018 256.584 55.005 256.677 53.8089C256.9 51.4541 259.194 48.4497 261.833 49.5662C263.629 50.3275 263.142 50.3884 263.142 50.3884C263.563 49.8909 264.107 49.5127 264.72 49.2918C265.332 49.0709 265.993 49.015 266.634 49.1298C269.141 49.3429 269.577 50.8756 269.577 50.8756C269.577 50.8756 272.43 51.8297 273.181 53.6364C274.043 55.6664 272.095 61.8985 271.151 63.624C270.207 65.3495 269.679 61.8376 269.354 60.4166C269.243 59.847 268.994 59.3137 268.627 58.8639C268.26 58.4141 267.789 58.0619 267.253 57.8385C265.71 57.4122 264.949 58.7926 263.721 59.3711C263.158 59.6997 262.529 59.8993 261.88 59.9555C261.23 60.0117 260.576 59.923 259.965 59.6959V59.6959Z" fill="#534741"/>
<path d="M275.881 67.3287C277.149 67.9377 281.422 78.0979 282.031 78.0776C282.64 78.0573 286.315 70.6478 287.543 70.5564C288.771 70.4651 292.07 74.2307 292.933 75.2254C293.795 76.2201 284.366 92.0135 280.083 92.7443C275.799 93.4751 273.993 88.3392 273.993 88.3392" fill="#FFC963"/>
<path d="M243.766 75.2559C242.284 75.3168 234.834 69.9373 230.348 66.7806C227.849 68.4278 225.628 70.4631 223.77 72.8097C228.49 77.2148 239.523 86.3498 244.07 86.5731C249.866 86.8472 259.996 82.1579 259.996 82.1579L255.723 68.7396C255.723 68.7396 245.877 75.1747 243.766 75.2559Z" fill="#FFC963"/>
<path d="M152.04 136.734C151.981 136.691 151.933 136.635 151.899 136.57C151.866 136.504 151.848 136.432 151.848 136.359L151.736 136.247L151.594 136.125C151.675 136.137 151.757 136.137 151.837 136.125C151.777 134.654 151.655 133.182 151.513 131.72C151.513 131.72 151.137 133.689 151.137 133.679C151.137 133.669 149.99 132.268 149.99 132.228C148.762 130.787 149.097 128.614 147.96 127.082V127.001C147.698 125.951 147.099 125.017 146.255 124.341C145.615 123.813 144.753 124.463 144.682 125.153C144.646 125.436 144.646 125.723 144.682 126.006C144.113 125.187 143.591 124.336 143.119 123.458C142.499 122.301 140.754 123.326 141.363 124.473C141.444 124.625 141.525 124.757 141.616 124.91C140.815 123.976 139.13 124.96 139.911 125.986L140.216 126.392C140.048 126.448 139.897 126.543 139.774 126.67C139.652 126.798 139.561 126.952 139.512 127.122C139.462 127.291 139.454 127.47 139.488 127.644C139.522 127.817 139.598 127.979 139.708 128.117C139.891 128.33 140.084 128.533 140.266 128.736C140.158 128.918 140.11 129.13 140.128 129.341C140.146 129.552 140.23 129.753 140.368 129.914C141.465 131.301 142.757 132.521 144.205 133.537C144.329 133.64 144.482 133.703 144.644 133.718C144.805 133.732 144.967 133.698 145.108 133.618C145.463 133.842 145.829 134.065 146.204 134.248L150.173 137.668C150.337 137.828 150.548 137.932 150.774 137.967C151.001 138.002 151.233 137.966 151.438 137.863C151.643 137.761 151.811 137.597 151.919 137.395C152.027 137.193 152.069 136.962 152.04 136.734V136.734Z" fill="#A45B3B"/>
<path d="M124.625 129.051V128.878C125.052 128.077 125.372 127.224 125.579 126.341C125.721 125.651 125.924 124.656 125.224 124.24C125.108 124.176 124.971 124.159 124.842 124.193C124.714 124.227 124.604 124.309 124.534 124.422C123.898 125.258 123.489 126.244 123.346 127.285C123.082 126.473 122.859 124.971 122.443 123.915C122.342 123.296 122.23 122.677 122.098 122.068C121.814 120.789 119.855 121.337 120.139 122.606C120.23 123.022 120.301 123.448 120.383 123.874C120.344 124.212 120.344 124.552 120.383 124.889C119.966 123.874 119.51 122.859 119.002 121.844C118.403 120.687 116.647 121.712 117.246 122.859C118.127 124.57 118.851 126.357 119.408 128.198C118.748 126.818 118.058 125.458 117.307 124.138C117.167 123.917 116.946 123.759 116.692 123.697C116.438 123.635 116.169 123.673 115.943 123.804C115.716 123.935 115.549 124.149 115.476 124.4C115.403 124.651 115.43 124.921 115.551 125.153C116.17 126.249 116.749 127.366 117.297 128.482L115.917 126.848C115.074 125.833 113.643 127.295 114.485 128.279L117.855 132.268C118.109 134.441 121.783 136.805 121.783 136.805L125.762 133.842C125.711 133.354 124.706 129.335 124.625 129.051Z" fill="#A45B3B"/>
<path d="M156.77 226.257V230.52C156.77 230.52 147.767 227.181 146.032 228.673C143.443 230.896 150.843 235.342 158.435 236.793C159.895 237.216 161.439 237.262 162.921 236.925C165.164 236.144 164.22 232.753 164.22 231.008C164.22 229.262 164.312 227.333 164.352 225.506" fill="#56403D"/>
<path d="M143.626 232.215V236.478C143.626 236.478 134.623 233.139 132.887 234.631C130.299 236.854 137.698 241.3 145.291 242.751C146.751 243.174 148.294 243.22 149.777 242.883C152.02 242.102 151.076 238.711 151.076 236.966C151.076 235.22 151.168 233.291 151.208 231.464" fill="#56403D"/>
<path d="M143.433 157.055C143.433 157.055 134.917 214.443 135.841 227.78C135.841 227.78 138.064 236.671 157.318 233.708C157.318 233.708 158.983 227.039 158.242 215.752C157.501 204.465 155.461 157.065 155.461 157.065L143.433 157.055Z" fill="#FFC963"/>
<path d="M148.133 224.877L151.036 156.395L163.987 155.207C163.987 155.207 167.692 172.98 166.575 181.496C165.459 190.012 167.874 201.309 168.423 207.226C168.92 212.545 169.123 221.731 167.286 225.841C160.952 227.48 154.269 227.144 148.133 224.877V224.877Z" fill="#FFC963"/>
<path d="M148.803 127.427C148.803 127.427 143.433 130.756 142.875 133.517C142.875 133.517 146.641 141.708 146.397 142.033C142.134 147.585 154.913 138.511 154.913 138.511C154.913 138.511 152.325 130.766 148.803 127.427Z" fill="#68E1FD"/>
<path d="M148.803 127.427C148.803 127.427 143.433 130.756 142.875 133.517C142.875 133.517 146.641 141.708 146.397 142.033C142.134 147.585 154.913 138.511 154.913 138.511C154.913 138.511 152.325 130.766 148.803 127.427Z" fill="#F26250"/>
<path d="M152.325 115.856C152.325 115.978 151.584 123.489 153.258 125.143C154.933 126.798 159.399 126.158 160.516 124.311C161.632 122.464 162.982 120.119 161.795 117.317C160.607 114.516 152.528 114.009 152.325 115.856Z" fill="#F7931E"/>
<path d="M154.72 120.697C154.661 120.566 154.642 120.421 154.663 120.279C154.685 120.137 154.747 120.004 154.842 119.896C155.357 119.259 156.073 118.816 156.872 118.637C157.233 118.552 157.613 118.602 157.941 118.778C158.268 118.954 158.519 119.243 158.648 119.591C159.166 121.296 156.395 121.794 155.268 121.936C155.069 121.936 154.878 121.857 154.737 121.716C154.596 121.575 154.517 121.384 154.517 121.185C154.516 121.094 154.534 121.004 154.568 120.92C154.603 120.836 154.655 120.761 154.72 120.697Z" fill="#FFE8E6"/>
<path d="M158.141 228.287C159.035 223.994 159.682 219.653 160.079 215.285C160.228 213.15 160.228 211.006 160.079 208.87C159.884 206.67 159.572 204.481 159.145 202.314C158.481 198.423 158.304 194.464 158.618 190.529C158.912 186.469 159.531 182.491 159.917 178.461C160.487 173.929 160.34 169.336 159.48 164.85C159.348 164.271 160.242 164.018 160.374 164.606C162.16 172.655 160.434 180.846 159.683 188.865C159.219 193.029 159.298 197.236 159.917 201.38C160.252 203.41 160.668 205.44 160.932 207.47C161.152 209.658 161.203 211.861 161.084 214.057C160.74 218.929 160.062 223.772 159.054 228.551C158.922 229.11 158.029 228.866 158.141 228.287Z" fill="white"/>
<path d="M127.883 131.69C135.77 140.825 140.875 138.338 142.865 139.333C145.595 140.703 146.661 129.335 158.679 129.386C159.46 129.386 163.348 127.731 165.398 132.847C167.448 137.963 165.398 152.65 164.028 155.177C162.82 157.44 154.811 162.861 143.372 157.055L143.2 151.767C143.2 151.929 134.258 149.98 133.486 149.676C129.842 148.245 127.021 145.555 124.219 142.916C123.691 142.418 116.942 135.912 118.708 135.151C121.428 134.004 125.234 130.847 127.883 131.69Z" fill="#F26250"/>
<path d="M137.526 150.498C140.643 151.617 144.045 151.658 147.188 150.614C150.331 149.571 153.033 147.503 154.862 144.743C155.106 144.377 155.694 144.743 155.451 145.088C153.549 147.982 150.731 150.156 147.449 151.26C144.166 152.364 140.608 152.335 137.343 151.178C136.968 151.005 137.11 150.346 137.526 150.498Z" fill="white"/>
<path d="M144.276 138.064C144.887 136.639 145.794 135.359 146.935 134.309C148.244 133.121 149.858 132.36 151.228 131.264C151.502 131.04 151.898 131.426 151.624 131.659C150.335 132.674 148.813 133.446 147.564 134.532C146.356 135.583 145.401 136.895 144.773 138.369C144.621 138.673 144.144 138.389 144.276 138.064Z" fill="white"/>
<path d="M152.193 116.922L154.588 118.18C154.588 118.18 152.741 125.214 152.183 127.072C151.624 128.929 153.847 131.517 161.074 131.7C168.301 131.883 167.925 120.961 166.261 116.891C164.596 112.821 159.592 110.964 155.522 112.08C154.443 112.29 153.49 112.914 152.867 113.82C152.244 114.725 152.002 115.839 152.193 116.922V116.922Z" fill="#A45B3B"/>
<path d="M347.073 146.428C346.413 146.742 346.22 147.879 346.007 148.458C345.662 149.473 345.266 150.437 344.88 151.421C342.099 158.526 339.399 165.631 337.887 173.153C337.542 174.858 337.115 176.289 338.547 177.598C341.104 179.953 345.063 180.826 348.392 181.394C355.051 182.566 361.908 181.696 368.063 178.898C369.088 178.42 369.902 177.582 370.349 176.543C370.796 175.504 370.846 174.337 370.489 173.264C367.768 165.063 361.354 145.971 360.105 145.859C358.593 145.666 353.995 143.17 347.073 146.428Z" fill="#68E1FD"/>
<path opacity="0.4" d="M370.509 173.295C368.367 166.849 363.932 153.715 361.547 148.285C361.729 160.242 357.487 173.193 348.89 181.486C355.4 182.547 362.078 181.657 368.083 178.928C369.108 178.45 369.922 177.612 370.369 176.574C370.817 175.535 370.866 174.368 370.509 173.295V173.295Z" fill="#328593"/>
<path d="M353.711 149.706C357.73 149.706 360.988 148.52 360.988 147.057C360.988 145.594 357.73 144.408 353.711 144.408C349.692 144.408 346.433 145.594 346.433 147.057C346.433 148.52 349.692 149.706 353.711 149.706Z" fill="#CE4823"/>
<path d="M350.392 146.519C349.658 144.508 348.783 142.551 347.773 140.662H347.895C349.59 140.033 349.174 137.019 348.91 135.689C348.88 135.585 348.82 135.491 348.737 135.42C348.655 135.35 348.553 135.305 348.446 135.291C348.338 135.277 348.228 135.294 348.13 135.342C348.033 135.389 347.951 135.464 347.895 135.557C347.338 136.546 346.924 137.608 346.667 138.714L346.048 137.699V137.638C346.2 137.201 346.352 136.755 346.484 136.318C346.553 136.115 346.611 135.909 346.657 135.699C347.017 134.454 347.158 133.156 347.073 131.862C347.066 131.766 347.039 131.673 346.992 131.588C346.933 131.469 346.836 131.373 346.716 131.316C346.597 131.259 346.461 131.244 346.332 131.274C345.53 131.426 345.144 132.583 344.941 133.304C344.734 134.069 344.618 134.856 344.596 135.648C344.095 134.972 343.571 134.295 343.023 133.618V133.557C343.541 132.015 344.383 129.569 343.246 128.097C343.177 128.027 343.091 127.977 342.997 127.952C342.902 127.927 342.802 127.928 342.708 127.955C341.947 128.137 341.774 128.97 341.693 129.629C341.656 130.521 341.7 131.415 341.825 132.299C341.027 131.379 340.188 130.492 339.308 129.64C338.8 129.142 338.019 129.924 338.526 130.421C339.034 130.918 339.409 131.304 339.836 131.751C338.648 131.436 337.491 131.446 337.116 132.451C336.273 134.684 340.739 134.38 342.008 134.227C342.319 134.613 342.627 135.006 342.932 135.405C342.531 135.37 342.13 135.451 341.774 135.638C341.583 135.718 341.417 135.847 341.291 136.011C341.165 136.175 341.084 136.37 341.056 136.575C341.028 136.78 341.055 136.989 341.133 137.181C341.211 137.372 341.337 137.54 341.5 137.668C341.967 137.904 342.495 137.993 343.013 137.922H344.738C345.033 138.369 345.317 138.835 345.591 139.292C345.232 139.17 344.851 139.122 344.473 139.15C344.095 139.178 343.726 139.281 343.388 139.455C343.222 139.55 343.082 139.684 342.979 139.846C342.877 140.008 342.815 140.193 342.8 140.384C342.785 140.575 342.817 140.767 342.893 140.942C342.969 141.118 343.087 141.273 343.236 141.393C344.078 142.094 345.672 141.749 346.646 141.627C346.721 141.617 346.794 141.593 346.86 141.556C347.765 143.277 348.555 145.058 349.224 146.884C349.57 147.473 350.635 147.189 350.392 146.519Z" fill="#1A7A23"/>
<path d="M339.968 130.543C339.968 130.543 339.491 124.788 334.761 124.697C334.71 124.697 333.34 130.167 339.968 130.543Z" fill="#1A7A23"/>
<path d="M356.096 146.346C356.876 144.216 357.805 142.144 358.877 140.145H358.745C356.949 139.475 357.385 136.278 357.73 134.867C357.762 134.758 357.825 134.66 357.912 134.586C357.998 134.512 358.104 134.465 358.217 134.45C358.33 134.435 358.444 134.453 358.547 134.502C358.65 134.55 358.736 134.628 358.796 134.725C359.385 135.771 359.822 136.895 360.095 138.064C360.305 137.712 360.521 137.374 360.745 137.049V136.988C360.582 136.521 360.43 136.054 360.278 135.587C360.202 135.375 360.137 135.158 360.085 134.938C359.694 133.622 359.536 132.248 359.618 130.878C359.626 130.774 359.657 130.673 359.709 130.584C359.77 130.456 359.873 130.354 360.001 130.293C360.128 130.232 360.272 130.216 360.41 130.249C361.262 130.411 361.668 131.639 361.881 132.37C362.101 133.181 362.224 134.016 362.247 134.857C362.781 134.112 363.336 133.382 363.911 132.664V132.593C363.363 130.949 362.47 128.361 363.678 126.798C363.75 126.724 363.841 126.671 363.941 126.644C364.041 126.617 364.147 126.618 364.246 126.645C365.058 126.848 365.261 127.66 365.261 128.422C365.3 129.364 365.252 130.309 365.119 131.243C365.972 130.269 366.862 129.328 367.789 128.422C368.327 127.894 369.159 128.726 368.621 129.254C368.083 129.782 367.687 130.188 367.241 130.665C368.509 130.34 369.727 130.35 370.123 131.406C371.016 133.771 366.276 133.436 364.937 133.294C364.605 133.706 364.267 134.122 363.922 134.542C364.346 134.503 364.772 134.588 365.15 134.786C365.364 134.865 365.552 135.002 365.694 135.18C365.837 135.358 365.928 135.572 365.958 135.798C365.989 136.025 365.957 136.255 365.866 136.465C365.776 136.674 365.63 136.855 365.444 136.988C364.95 137.24 364.39 137.336 363.84 137.262H362.013C361.699 137.739 361.404 138.277 361.11 138.714C361.491 138.587 361.894 138.537 362.295 138.567C362.695 138.596 363.086 138.705 363.445 138.886C363.616 138.988 363.76 139.13 363.866 139.299C363.971 139.468 364.034 139.66 364.05 139.859C364.066 140.058 364.034 140.258 363.957 140.442C363.88 140.625 363.76 140.788 363.607 140.916C362.714 141.657 361.029 141.292 359.994 141.16C359.915 141.15 359.84 141.126 359.77 141.089C358.81 142.912 357.973 144.797 357.263 146.732C356.969 147.361 355.842 147.087 356.096 146.346Z" fill="#1A7A23"/>
<path d="M367.2 129.396C367.2 129.396 367.708 123.306 372.722 123.194C372.722 123.194 374.173 129 367.2 129.396Z" fill="#1A7A23"/>
<path d="M353.051 145.839C353.527 143.18 353.816 140.49 353.914 137.79H354.066C356.309 138.186 357.781 134.633 358.309 132.989C358.341 132.857 358.334 132.719 358.289 132.591C358.244 132.463 358.163 132.351 358.056 132.268C357.948 132.185 357.819 132.135 357.684 132.125C357.548 132.114 357.413 132.143 357.294 132.208C356.06 132.931 354.936 133.826 353.954 134.867C353.954 134.373 353.954 133.882 353.954 133.395H354.025C354.472 133.02 354.908 132.624 355.345 132.228C355.551 132.053 355.748 131.866 355.934 131.67C357.123 130.553 358.109 129.237 358.847 127.782C358.9 127.671 358.928 127.55 358.928 127.427C358.94 127.26 358.896 127.094 358.802 126.956C358.708 126.818 358.57 126.716 358.41 126.666C357.395 126.321 356.289 127.346 355.629 127.965C354.916 128.666 354.289 129.45 353.762 130.299C353.66 129.21 353.528 128.127 353.366 127.051L353.437 127.001C354.99 125.64 357.497 123.509 357.162 121.185C357.131 121.065 357.069 120.955 356.981 120.868C356.894 120.78 356.784 120.718 356.664 120.687C355.71 120.403 355.02 121.174 354.543 121.895C353.939 122.844 353.422 123.846 353 124.889C352.709 123.38 352.371 121.878 351.985 120.383C351.927 120.217 351.808 120.08 351.653 119.997C351.497 119.915 351.317 119.894 351.147 119.939C350.977 119.984 350.83 120.091 350.735 120.239C350.64 120.387 350.605 120.565 350.635 120.738C350.848 121.499 351.031 122.261 351.214 123.022C350.108 121.926 348.849 121.205 347.803 122.007C345.469 123.905 350.524 126.412 352.006 127.082C352.097 127.701 352.188 128.32 352.259 128.949C351.846 128.655 351.356 128.485 350.848 128.462C349.702 128.462 348.676 129.386 349.224 130.543C349.581 131.096 350.098 131.528 350.706 131.781L352.594 132.857C352.594 133.537 352.645 134.217 352.655 134.887C352.342 134.526 351.96 134.232 351.531 134.021C351.102 133.81 350.635 133.687 350.158 133.659C349.916 133.659 349.677 133.718 349.463 133.831C349.249 133.944 349.065 134.108 348.928 134.308C348.792 134.508 348.705 134.738 348.677 134.979C348.649 135.219 348.68 135.463 348.768 135.689C349.245 136.988 351.194 137.617 352.341 138.105C352.427 138.142 352.52 138.163 352.615 138.166C352.506 140.617 352.235 143.058 351.803 145.474C351.549 146.357 352.889 146.722 353.051 145.839Z" fill="#1A7A23"/>
<path d="M351.803 121.712C351.803 121.712 354.949 115.135 349.844 112.019C349.844 112.06 344.87 117.165 351.803 121.712Z" fill="#1A7A23"/>
<defs>
<linearGradient id="paint0_linear" x1="18032" y1="6233.96" x2="18826.8" y2="5014.16" gradientUnits="userSpaceOnUse">
<stop stop-color="#3189FF"/>
<stop offset="1" stop-color="#4F1F34"/>
</linearGradient>
</defs>
</svg>
