<svg width="392" height="280" viewBox="0 0 392 280" fill="none" xmlns="http://www.w3.org/2000/svg">
<path d="M190.032 276.657L7.61607 168.844C1.81027 165.586 -3.17338 160.237 2.49032 156.715L185.566 51.1546C188.317 49.4494 192.488 48.3329 195.279 49.9569L386.769 161.14C392.575 164.51 393.621 173.929 387.784 177.309L214.108 276.485C210.457 278.606 206.315 279.738 202.093 279.769C197.87 279.799 193.713 278.726 190.032 276.657Z" fill="#3189FF"/>
<path d="M91.993 74.9767L122.971 56.7371V157.74L91.993 176.304V74.9767Z" fill="#68E1FD"/>
<path opacity="0.47" d="M91.993 74.9767L122.971 56.7371V157.74L91.993 176.304V74.9767Z" fill="#42210B"/>
<path d="M210.484 43.7045C211.886 42.2608 212.999 40.5623 213.763 38.7006C214.158 37.0867 214.889 30.4588 215.793 30.134C218.34 29.2306 215.935 34.4274 216.909 34.2549C217.883 34.0823 221.984 29.4336 223.202 29.119C224.42 28.8043 226.399 31.8798 225.892 33.7169C225.084 35.6511 223.966 37.4407 222.583 39.0152L212.717 48.0893" fill="#F67770"/>
<path d="M178.887 156.471C178.759 157.126 178.777 157.8 178.938 158.447C179.099 159.095 179.401 159.698 179.821 160.216C181.232 161.739 186.642 166.53 187.149 167.565C187.657 168.6 188.377 171.432 187.149 172.417C185.921 173.401 183.526 173.503 180.582 172.417C177.639 171.331 170.564 166.753 169.255 165.312C167.945 163.87 169.255 149.305 169.255 149.305C169.255 149.305 176.837 147.458 179.405 149.305L178.887 156.471Z" fill="#42210B"/>
<path d="M158.922 166.205C158.794 166.859 158.812 167.534 158.973 168.181C159.134 168.828 159.436 169.432 159.856 169.95C161.267 171.473 166.677 176.264 167.184 177.299C167.692 178.334 168.412 181.166 167.184 182.151C165.956 183.135 163.561 183.237 160.617 182.151C157.674 181.064 150.599 176.487 149.29 175.046C147.98 173.604 149.29 159.039 149.29 159.039C149.29 159.039 156.872 157.192 159.44 159.039L158.922 166.205Z" fill="#42210B"/>
<path d="M179.811 62.1775C179.811 62.1775 183.678 79.3412 183.932 95.3883C184.185 111.435 182.287 154.543 182.287 154.543C182.287 154.543 177.842 158.816 168.077 157.313V97.4894C168.077 97.4894 164.667 98.7581 164.667 101.296C164.667 103.833 161.551 165.017 161.551 165.017C161.551 165.017 159.805 168.255 147.026 163.302C147.026 163.302 142.662 82.2035 152.04 66.4811" fill="#E6E6E6"/>
<path d="M156.791 64.3699C158.821 65.253 163.896 69.3536 167.864 70.8862C171.674 72.4836 175.677 73.5723 179.77 74.1241C180.237 73.5049 180.704 72.8553 181.181 72.0941C193.087 53.479 198.954 39.2385 198.578 35.2293C198.203 31.22 188.073 23.4045 182.267 22.42C176.461 21.4354 165.936 23.7699 165.936 23.7699C165.936 23.7699 160.12 41.6035 158.283 55.3364C157.735 59.1833 157.735 59.1833 156.791 64.3699Z" fill="#42210B"/>
<path d="M189.565 28.1649C191.199 29.4032 193.889 24.5515 193.341 23.7192C192.793 22.8869 184.338 18.8573 182.754 18.8167C179.293 18.7355 180.156 24.3282 180.156 24.3282" fill="#42210B"/>
<path d="M188.55 2.08951C190.316 2.56656 191.595 -0.173939 195.168 0.00876135C198.741 0.191461 201.512 3.66276 202.405 5.25631C203.298 6.84986 205.176 5.34766 205.917 7.51976C206.658 9.69186 204.658 11.5798 205.115 12.7876C205.133 12.8406 205.157 12.8915 205.186 12.9399C205.263 13.7299 205.138 14.5266 204.822 15.2548C204.506 15.983 204.009 16.6185 203.379 17.1014C202.291 17.6774 201.13 18.1042 199.928 18.3701L182.978 19.0603C181.881 17.1217 183.871 4.71836 184.703 3.43946C185.084 2.79898 185.678 2.31284 186.381 2.06606C187.085 1.81929 187.852 1.82759 188.55 2.08951Z" fill="#200904"/>
<path d="M201.522 13.285C201.826 14.2391 193.615 26.4089 189.392 24.9981C185.17 23.5872 182.957 16.0965 183.302 14.3203C183.647 12.544 187.829 4.26161 189.819 4.23116C191.808 4.20071 199.674 7.48931 201.522 13.285Z" fill="#F67770"/>
<path d="M201.44 8.61596C201.44 8.61596 200.791 12.0365 195.746 10.3618C190.702 8.68701 189.88 9.61066 188.52 11.0114C185.982 13.6504 180.907 15.7311 184.206 5.75366C184.368 5.26646 190.844 0.424911 194.782 1.69366C198.72 2.96241 201.44 8.61596 201.44 8.61596Z" fill="#200904"/>
<path d="M187.312 12.4933C187.312 12.4933 187.027 9.20467 185.282 9.88472C183.536 10.5648 183.028 13.8432 184.175 15.4774" fill="#F67770"/>
<path d="M198.568 35.2496C198.995 40.4464 198.852 45.6742 198.142 50.84C198.142 50.84 211.438 38.7919 212.555 39.5735C213.671 40.355 216.615 44.9124 216.138 46.8104C215.661 48.7085 198.274 68.6938 189.291 67.0089C180.308 65.324 184.216 45.4097 184.216 45.4097" fill="#42210B"/>
<path d="M236.153 114.074V10.037L109.745 84.4771V189.834L236.153 114.074Z" fill="#68E1FD"/>
<path d="M231.089 47.592L262.066 29.3524V130.355L231.089 148.919V47.592Z" fill="#FF9F9F"/>
<path d="M255.723 83.0967C255.723 83.0967 247.603 83.7767 245.867 83.0967C244.131 82.4166 238.762 80.4475 238.376 82.0208C237.991 83.594 241.086 84.3857 241.086 84.3857C241.086 84.3857 235.575 85.7661 234.042 86.2229C232.51 86.6796 233.372 88.1108 234.611 87.8976C234.611 87.8976 231.413 89.3389 232.51 90.0697C232.86 90.2807 233.248 90.4191 233.653 90.4766C234.057 90.5342 234.469 90.5097 234.864 90.4047C234.864 90.4047 233.413 91.5922 235.067 92.323C236.606 92.1915 238.118 91.85 239.564 91.308C239.564 91.308 237.706 92.8914 238.305 93.338C238.904 93.7846 238.732 94.2008 244.273 91.308C244.273 91.308 255.844 88.7299 258.423 88.263" fill="#A45B3B"/>
<path d="M304.757 173.31L306.361 172.295V154.238L298.434 153.954C298.434 153.954 298.282 161.658 296.404 163.414C294.526 165.17 289.898 163.911 289.441 164.063C288.984 164.215 285.868 163.312 284.467 164.753C283.067 166.195 289.218 170.356 292.486 171.117C294.724 171.569 297.021 171.655 299.287 171.371C299.287 171.371 299.997 166.753 301.134 167.21C302.271 167.666 302.352 172.549 302.352 172.549L304.757 173.31Z" fill="#1F1F1F"/>
<path d="M312.563 103.458C312.451 91.5212 311.548 80.4983 301.986 72.1753L301.398 74.3575C301.398 74.2763 301.398 74.1951 301.398 74.1139C301.306 73.0989 299.571 72.632 299.368 73.8399C299.372 73.9312 299.372 74.0226 299.368 74.1139V74.1748C299.368 74.5707 299.276 74.9767 299.256 75.3725C299.157 75.2641 299.036 75.1785 298.901 75.1215C298.765 75.0645 298.62 75.0374 298.473 75.0423C298.326 75.0471 298.182 75.0836 298.051 75.1494C297.92 75.2152 297.805 75.3086 297.713 75.4233C295.846 76.0221 295.095 78.722 295.084 80.4069C295.084 80.6761 295.191 80.9343 295.382 81.1246C295.572 81.315 295.83 81.4219 296.099 81.4219C296.369 81.4219 296.627 81.315 296.817 81.1246C297.007 80.9343 297.114 80.6761 297.114 80.4069C297.05 79.6397 297.231 78.8718 297.632 78.2145L297.815 77.6969V77.7578V77.8796C297.74 78.3835 297.764 78.8972 297.886 79.3919C297.925 79.5195 297.989 79.6381 298.075 79.7409C298.16 79.8437 298.265 79.9286 298.383 79.9908C298.474 80.3765 298.576 80.7622 298.677 81.1479L295.937 81.9294L292.019 107.142C292.019 107.142 292.547 162.074 294.211 162.551C305.671 165.88 310.391 160.358 310.391 160.358C311.142 141.479 312.715 122.387 312.563 103.458Z" fill="#42210B"/>
<path d="M283.036 187.236L284.64 186.221V168.164L276.713 167.88C276.713 167.88 276.561 175.583 274.683 177.339C272.805 179.095 268.177 177.837 267.72 177.989C267.263 178.141 264.147 177.238 262.746 178.679C261.346 180.121 267.497 184.282 270.765 185.043C273.003 185.495 275.3 185.581 277.565 185.297C277.565 185.297 278.276 180.679 279.413 181.136C280.55 181.592 280.631 186.474 280.631 186.474L283.036 187.236Z" fill="#1F1F1F"/>
<path d="M285.888 80.3359C285.888 80.3359 278.58 107.315 275.607 131.461C274.896 137.257 268.897 171.828 268.897 171.828C268.897 171.828 278.783 175.441 287.573 172.61C287.573 172.61 298.028 128.498 298.474 127.635C298.921 126.772 305.975 98.1999 306.787 77.6969" fill="#42210B"/>
<path d="M285.026 44.4353L280.631 45.1864C279.748 45.7954 273.13 53.3064 272.602 60.8783C273.073 62.8844 273.694 64.8523 274.46 66.7653C275.353 69.3739 276.317 71.9723 277.423 74.4996C278.591 77.2716 279.965 79.9519 281.534 82.5181C282.214 83.6042 282.549 84.1523 283.341 85.1876C283.979 85.3548 284.642 85.4098 285.3 85.35C298.759 83.6651 304.006 73.038 303.895 71.9317C303.783 70.8253 297.805 57.3055 294.161 49.287C293.389 47.5823 292.073 46.1815 290.42 45.3037C288.768 44.4259 286.871 44.1205 285.026 44.4353V44.4353Z" fill="#68E1FD"/>
<path d="M268.136 35.7875C268.136 35.7875 271.963 49.9975 277.444 49.084C282.925 48.1705 285.878 39.949 284.965 37.0563C284.051 34.1635 272.714 28.1547 268.136 35.7875Z" fill="#A45B3B"/>
<path d="M288.203 19.1517C286.89 18.2713 285.306 17.8897 283.737 18.0759C282.167 18.262 280.716 19.0037 279.646 20.1667C277.616 22.4301 277.393 25.4345 278.063 28.2359C274.683 27.5863 270.785 28.5607 267.324 32.2959C267.324 32.2959 264.218 36.498 266.522 38.6904C268.826 40.8828 271.973 39.0558 274.896 38.0002C277.819 36.9446 277.058 40.5276 278.712 43.0752C280.367 45.6229 281.757 45.3387 283.016 44.9225C284.275 44.5064 288.588 40.5174 285.848 34.2346C285.681 33.8529 285.487 33.4832 285.269 33.1282C285.994 32.7979 286.692 32.4146 287.36 31.9813C288.941 31.1216 290.223 29.8011 291.035 28.1953C291.64 26.5881 291.689 24.8246 291.176 23.1857C290.663 21.5469 289.616 20.1268 288.203 19.1517V19.1517Z" fill="#FC9C54"/>
<path d="M303.712 97.5502C303.062 110.451 299.256 122.814 296.028 135.237C292.801 147.661 290.05 160.034 287.695 172.569L288.791 172.264C291.18 159.604 294.002 147.035 297.256 134.557C300.454 122.377 304.087 110.197 304.727 97.5502C304.767 96.9006 303.752 96.9006 303.712 97.5502Z" fill="#653200"/>
<path d="M272.602 60.8783C272.602 60.8783 268.816 72.4696 265.629 75.5248C263.396 77.6664 253.723 80.9652 248.13 82.7516C248.351 86.3381 249.637 89.777 251.825 92.6275C260.036 90.7295 273.363 85.9488 276.632 82.0715C281.422 76.3977 283.605 68.1051 283.605 68.1051L272.602 60.8783Z" fill="#68E1FD"/>
<path d="M158.77 59.9344L162.261 63.3448C162.261 63.3448 165.367 66.1969 165.114 67.3236C164.86 68.4502 160.972 65.4966 160.11 64.9688C159.247 64.441 161.937 71.5257 161.541 72.3174C161.145 73.1091 160.292 72.8452 159.836 72.3174C159.379 71.7896 159.988 74.053 158.689 73.8602C157.389 73.6673 157.126 72.155 157.126 72.155C157.126 72.155 156.253 73.7282 155.238 72.9467C154.223 72.1651 151.817 63.9741 152.325 61.7106C152.832 59.4472 156.983 58.1886 158.77 59.9344Z" fill="#F67770"/>
<path d="M152.03 62.2283C152.03 62.2283 151.066 69.3333 152.264 69.7596C153.461 70.1859 154.984 67.7296 154.984 67.7296C154.984 67.7296 154.03 61.6396 153.421 60.858C152.812 60.0765 152.03 62.2283 152.03 62.2283Z" fill="#F67770"/>
<path d="M165.936 23.7902C165.936 23.7902 146.224 33.0369 142.347 37.8175C138.47 42.5982 149.615 63.8117 149.615 63.8117L159.054 60.0866C159.054 60.0866 152.852 44.1714 155.238 43.3087C157.623 42.4459 169.986 38.4367 169.986 38.4367" fill="#42210B"/>
<path d="M145.692 111.472C147.653 98.1109 143.618 86.4541 136.68 85.4357C129.742 84.4173 122.527 94.423 120.566 107.784C118.605 121.145 122.64 132.802 129.578 133.82C136.517 134.838 143.731 124.833 145.692 111.472Z" fill="white"/>
<path d="M158.394 106.371C158.394 106.371 149.899 105.457 148.914 104.848C147.93 104.239 145.281 93.6831 144.397 93.8151C143.514 93.947 142.581 96.8601 142.581 97.9563C142.581 99.0525 143.981 103.742 143.372 103.671C142.763 103.6 141.342 101.235 140.419 101.752C139.495 102.27 142.621 107.954 143.88 108.38C145.067 108.724 146.274 108.999 147.493 109.202L158.658 113.8" fill="#FFC9B5"/>
<path d="M189.616 101.986C189.616 101.986 174.249 107.375 170.828 107.467C167.408 107.558 152.873 105.335 152.873 105.335C152.873 105.335 150.041 110.41 151.858 112.522C151.858 112.522 166.118 117.221 171.143 117.475C176.167 117.728 191.686 115.739 193.716 113.709C195.746 111.679 189.616 101.986 189.616 101.986Z" fill="#688C03"/>
<path d="M177.273 229.257C177.273 229.257 173.65 226.212 169.59 227.359C165.53 228.506 166.372 231.591 168.93 233.499C171.488 235.408 181.343 242.035 184.378 241.975C187.413 241.914 188.073 239.468 188.134 237.803C187.965 235.225 187.667 232.657 187.241 230.109" fill="#2C1D1A"/>
<path d="M179.527 229.043C179.512 229.157 179.472 229.265 179.41 229.361C179.348 229.457 179.265 229.538 179.168 229.599C179.071 229.659 178.962 229.697 178.848 229.71C178.735 229.722 178.62 229.71 178.512 229.673C177.409 229.324 176.328 228.91 175.274 228.435C175.274 228.435 171.772 228.435 173.904 231.936C176.035 235.438 183.363 236.463 185.627 235.154C187.89 233.844 186.378 230.15 186.378 230.15" fill="#2C1D1A"/>
<path d="M168.757 236.077C168.757 236.077 165.134 233.032 161.074 234.179C157.014 235.326 157.856 238.412 160.414 240.32C162.972 242.228 172.828 248.856 175.862 248.795C178.897 248.734 179.557 246.288 179.618 244.624C179.449 242.046 179.151 239.478 178.725 236.93" fill="#2C1D1A"/>
<path d="M171.011 235.864C170.996 235.978 170.956 236.086 170.894 236.182C170.832 236.278 170.75 236.359 170.652 236.42C170.555 236.48 170.446 236.518 170.332 236.53C170.219 236.543 170.104 236.531 169.996 236.494C168.893 236.144 167.812 235.731 166.758 235.255C166.758 235.255 163.256 235.255 165.388 238.757C167.519 242.259 174.847 243.284 177.111 241.975C179.374 240.665 177.862 236.971 177.862 236.971" fill="#FFC9B5"/>
<path d="M167.215 140.739C166.037 143.408 165.398 181.613 165.844 191.438C166.291 201.263 171.011 235.864 171.011 235.864C171.011 235.864 173.7 239.924 178.217 239.65C182.734 239.376 181.861 235.722 181.861 235.722C181.861 235.722 187.636 238.402 190.164 232.515C191.098 230.333 195.493 169.433 195.493 162.48C195.34 154.193 193.061 146.085 188.875 138.932" fill="#C13D3D"/>
<path d="M181.851 235.712C181.851 235.712 184.591 158.501 184.246 156.238C183.901 153.974 184.997 173.168 184.926 178.415C184.876 182.161 182.643 230.454 181.851 235.712Z" fill="#6D5854"/>
<path d="M167.215 140.739C167.215 140.739 163.216 113.405 168.9 108.259C174.584 103.112 190.357 99.4382 193.26 102.006C196.162 104.574 191.788 133.573 188.844 138.952C185.901 144.332 169.316 142.84 167.215 140.739Z" fill="#8CCC00"/>
<path d="M174.401 88.1717C174.269 88.5574 171.468 99.2453 176.35 100.748C181.232 102.25 182.216 96.4541 182.704 96.1293C183.191 95.8045 184.734 95.2767 184.642 94.0993C184.551 92.9219 182.704 92.9016 182.704 92.9016C182.704 92.9016 181.993 89.8566 179.791 88.5269C177.588 87.1973 174.401 88.1717 174.401 88.1717Z" fill="#FFC9B5"/>
<path d="M178.958 91.1355C178.958 91.1355 174.898 91.2065 173.122 89.4506C172.786 89.1096 172.525 88.7021 172.356 88.2543C172.186 87.8064 172.113 87.3281 172.14 86.8501C172.166 86.3721 172.293 85.905 172.511 85.4788C172.729 85.0526 173.034 84.6768 173.406 84.3756C173.406 84.3756 171.792 81.1479 174.827 80.3156C174.827 80.3156 175.111 77.3518 181.171 78.7119C187.23 80.072 192.772 84.3553 192.854 89.8769C192.935 95.3985 193.341 96.0582 195.31 97.3371C197.279 98.616 196.731 103.427 191.483 103.661C186.236 103.894 179.08 103.397 178.41 100.808C177.74 98.2202 181.719 97.936 182.216 95.3477C182.337 94.358 182.063 93.3606 181.453 92.5719C180.843 91.7833 179.947 91.2671 178.958 91.1355V91.1355Z" fill="#2C1D1A"/>
<path d="M144.377 122.773C144.377 122.773 139.038 123.067 137.983 122.641C136.303 122.059 134.578 121.614 132.826 121.311C132.826 121.311 132.826 121.311 132.826 121.311C132.579 121.255 132.328 121.21 132.075 121.179C131.558 121.119 130.533 120.905 130.238 121.525C129.599 122.834 132.522 123.321 133.567 123.473C133.567 123.473 133.567 123.473 133.567 123.534C133.172 123.91 127.356 124.823 126.462 124.965C125.569 125.108 125.082 127.838 125.082 127.838C126.229 130.01 129.792 130.152 132.116 130.172C134.44 130.193 137.577 128.142 138.338 128.142C139.099 128.142 144.885 129.259 145.839 128.772C146.793 128.284 144.377 122.773 144.377 122.773Z" fill="#FFC9B5"/>
<path d="M169.366 108.39C166.859 109.405 165.073 111.354 162.921 112.867C161.368 113.963 159.744 115.11 158.141 116.186C156.607 117.363 154.893 118.285 153.066 118.916C150.173 119.708 147.189 119.931 144.245 120.459C143.528 120.502 142.831 120.718 142.215 121.088C140.926 122.194 139.17 127.178 143.829 130.792C147.648 131.109 151.487 131.126 155.309 130.842C160.384 130.335 171.752 122.966 174.594 119.576C176.502 117.272 177.639 113.75 176.482 110.847C176.071 109.912 175.382 109.127 174.508 108.6C173.633 108.073 172.618 107.83 171.599 107.903C170.833 107.936 170.077 108.101 169.366 108.39V108.39Z" fill="#8CCC00"/>
</svg>
