<svg width="232" height="276" viewBox="0 0 232 276" fill="none" xmlns="http://www.w3.org/2000/svg">
<path d="M115.629 275.219C179.489 275.219 231.258 244.808 231.258 207.295C231.258 169.782 179.489 139.371 115.629 139.371C51.7688 139.371 0 169.782 0 207.295C0 244.808 51.7688 275.219 115.629 275.219Z" fill="#3189FF"/>
<path d="M127.677 17.1754L134.447 20.1696L127.941 23.0319L126.378 19.6621" fill="#EF7F6C"/>
<path d="M65.9953 216.055L122.236 183.28C124.493 181.964 126.367 180.082 127.672 177.819C128.977 175.556 129.668 172.992 129.676 170.38L131.493 21.5095C131.493 17.6017 125.403 15.6123 122.064 17.6017L63.8841 51.929C62.4404 52.7814 61.2439 53.9955 60.4126 55.4515C59.5814 56.9075 59.1441 58.5551 59.144 60.2317V212.126C59.1458 212.927 59.3584 213.713 59.7605 214.405C60.1626 215.098 60.7401 215.672 61.4346 216.07C62.1292 216.468 62.9164 216.677 63.7171 216.674C64.5177 216.671 65.3035 216.457 65.9953 216.055Z" fill="#68E1FD"/>
<path d="M61.4887 216.105L68.8475 219.993L67.9948 214.867L62.8894 213.943" fill="#EF7F6C"/>
<path d="M73.0495 219.79L129.291 187.015C131.557 185.696 133.437 183.806 134.744 181.534C136.051 179.261 136.74 176.686 136.741 174.064V23.7729C136.742 23.0697 136.557 22.3787 136.205 21.7703C135.853 21.1618 135.345 20.6575 134.735 20.3089C134.124 19.9602 133.432 19.7797 132.729 19.7855C132.026 19.7914 131.337 19.9834 130.732 20.3422L70.918 55.6845C69.4743 56.5369 68.2778 57.751 67.4466 59.207C66.6153 60.663 66.1781 62.3106 66.178 63.9872V215.851C66.1758 216.656 66.3867 217.447 66.7891 218.143C67.1916 218.84 67.7712 219.418 68.4692 219.818C69.1672 220.218 69.9587 220.426 70.7632 220.421C71.5676 220.416 72.3565 220.198 73.0495 219.79Z" fill="#F4F4F4"/>
<path d="M69.761 73.1323L133.838 36.3893V167.862L69.761 204.91V73.1323Z" fill="#68E1FD"/>
<path d="M110.658 192.549C111.17 190.407 110.299 188.362 108.712 187.984C107.125 187.605 105.424 189.035 104.913 191.177C104.401 193.32 105.272 195.364 106.859 195.743C108.446 196.122 110.147 194.692 110.658 192.549Z" fill="#BABABC"/>
<path d="M110.168 42.7128C110.167 42.9643 110.1 43.2112 109.974 43.4286C109.847 43.646 109.666 43.8262 109.447 43.9511L97.0644 51.0561C96.8471 51.1804 96.6009 51.2455 96.3506 51.2449C96.1002 51.2443 95.8543 51.1781 95.6376 51.0527C95.4208 50.9274 95.2407 50.7474 95.1153 50.5307C94.9899 50.314 94.9235 50.0682 94.9228 49.8178V49.5133C94.9237 49.258 94.9929 49.0077 95.1232 48.7882C95.2535 48.5686 95.4401 48.388 95.6638 48.2649L108.047 41.4745C108.264 41.3552 108.508 41.294 108.755 41.2971C109.002 41.3002 109.245 41.3674 109.459 41.4922C109.672 41.6169 109.85 41.795 109.974 42.0089C110.099 42.2228 110.165 42.4654 110.168 42.7128Z" fill="#CCCCCC"/>
<path d="M117.174 39.4206C117.54 38.4322 117.248 37.4134 116.523 37.1449C115.797 36.8763 114.912 37.4599 114.547 38.4482C114.181 39.4366 114.472 40.4555 115.198 40.724C115.923 40.9925 116.808 40.4089 117.174 39.4206Z" fill="#CCCCCC"/>
<path d="M115.781 68.3111V76.6239C115.782 76.9225 115.86 77.2157 116.008 77.475C116.156 77.7342 116.369 77.9506 116.626 78.103C116.882 78.2554 117.174 78.3386 117.473 78.3444C117.771 78.3503 118.066 78.2785 118.329 78.1363L126.012 73.9545C126.283 73.8055 126.509 73.5865 126.666 73.3205C126.823 73.0544 126.906 72.7511 126.905 72.4421V63.8958C126.904 63.5946 126.824 63.299 126.673 63.0385C126.522 62.7779 126.305 62.5614 126.044 62.4105C125.784 62.2596 125.488 62.1796 125.187 62.1784C124.886 62.1773 124.589 62.255 124.327 62.4038L116.593 66.8495C116.345 67.0043 116.14 67.2197 115.998 67.4754C115.856 67.731 115.781 68.0186 115.781 68.3111V68.3111Z" fill="#EF7F6C"/>
<path d="M77.1298 90.4381V98.7509C77.1306 99.0495 77.2089 99.3427 77.3569 99.602C77.505 99.8612 77.7178 100.078 77.9745 100.23C78.2312 100.382 78.5231 100.466 78.8216 100.471C79.1201 100.477 79.415 100.406 79.6775 100.263L87.361 96.0409C87.6317 95.8919 87.8573 95.6729 88.0144 95.4069C88.1716 95.1408 88.2544 94.8375 88.2542 94.5285V86.0228C88.2528 85.7216 88.1726 85.426 88.0215 85.1654C87.8704 84.9049 87.6538 84.6884 87.3931 84.5375C87.1324 84.3866 86.8367 84.3066 86.5355 84.3054C86.2343 84.3043 85.938 84.3819 85.6761 84.5308L78.023 88.946C77.7554 89.0934 77.5317 89.3092 77.3747 89.5713C77.2178 89.8335 77.1333 90.1326 77.1298 90.4381V90.4381Z" fill="#7EB753"/>
<path d="M96.9021 79.74V88.0528C96.9029 88.3514 96.9811 88.6446 97.1292 88.9039C97.2772 89.1631 97.49 89.3795 97.7467 89.5319C98.0035 89.6843 98.2954 89.7675 98.5938 89.7733C98.8923 89.7792 99.1872 89.7074 99.4497 89.5652L107.133 85.3428C107.404 85.1938 107.63 84.9748 107.787 84.7088C107.944 84.4427 108.027 84.1394 108.026 83.8304V75.3247C108.027 75.0206 107.947 74.7216 107.795 74.4582C107.643 74.1948 107.424 73.9762 107.16 73.8248C106.896 73.6733 106.597 73.5942 106.293 73.5956C105.989 73.597 105.69 73.6788 105.428 73.8327L97.7445 78.2479C97.4863 78.4017 97.2728 78.6203 97.125 78.882C96.9772 79.1437 96.9004 79.4395 96.9021 79.74V79.74Z" fill="#F2F2F2"/>
<path d="M91.4273 178.761C92.8195 174.38 91.3063 169.989 88.0474 168.953C84.7886 167.918 81.0181 170.629 79.6259 175.01C78.2338 179.391 79.747 183.782 83.0059 184.817C86.2647 185.853 90.0351 183.141 91.4273 178.761Z" fill="#F2F2F2"/>
<path d="M88.0683 175.314C88.4495 173.561 87.7816 171.928 86.5765 171.666C85.3715 171.404 84.0855 172.612 83.7043 174.365C83.3231 176.118 83.9909 177.751 85.196 178.014C86.4011 178.276 87.6871 177.067 88.0683 175.314Z" fill="#C4B7B3"/>
<path d="M81.5045 184.021C81.5045 184.021 82.8443 178.154 86.2243 177.444C89.6042 176.733 90.4365 181.017 90.4365 181.017C89.987 181.918 89.3595 182.719 88.592 183.372C87.8244 184.024 86.9327 184.514 85.9705 184.813C82.5906 185.95 81.5045 184.021 81.5045 184.021Z" fill="#C4B7B3"/>
<path d="M111.749 167.396C113.256 162.652 111.616 157.897 108.085 156.774C104.553 155.652 100.468 158.588 98.9607 163.332C97.4531 168.076 99.0936 172.832 102.625 173.954C106.156 175.076 110.241 172.14 111.749 167.396Z" fill="#EA7554"/>
<path d="M102.545 161.244C102.759 161.184 104.646 162.371 104.575 162.767C104.504 163.163 103.56 164.503 103.703 164.746C103.845 164.99 105.733 167.385 106.808 167.537C107.531 167.087 108.211 166.57 108.838 165.995C109.187 166.128 109.496 166.348 109.736 166.634C109.975 166.92 110.138 167.262 110.209 167.629C110.209 168.065 108.453 169.537 107.367 169.913C105.956 170.4 101.612 165.579 101.094 164.32C100.576 163.061 102.545 161.244 102.545 161.244Z" fill="white"/>
<path d="M117.963 99.4716V107.784C117.964 108.083 118.042 108.376 118.19 108.635C118.339 108.895 118.551 109.111 118.808 109.264C119.065 109.416 119.357 109.499 119.655 109.505C119.954 109.511 120.248 109.439 120.511 109.297L128.195 105.074C128.465 104.925 128.691 104.706 128.848 104.44C129.005 104.174 129.088 103.871 129.088 103.562V95.0563C129.086 94.7551 129.006 94.4595 128.855 94.199C128.704 93.9384 128.487 93.7219 128.227 93.571C127.966 93.4201 127.67 93.3401 127.369 93.3389C127.068 93.3378 126.771 93.4155 126.51 93.5643L118.826 97.9795C118.564 98.1308 118.346 98.3483 118.195 98.6101C118.044 98.872 117.964 99.1691 117.963 99.4716V99.4716Z" fill="#7EB753"/>
<path d="M79.9719 121.264V129.576C79.9727 129.875 80.0509 130.168 80.199 130.428C80.347 130.687 80.5598 130.903 80.8166 131.056C81.0733 131.208 81.3652 131.291 81.6636 131.297C81.9621 131.303 82.257 131.231 82.5195 131.089L90.2031 126.866C90.4737 126.717 90.6994 126.498 90.8565 126.232C91.0136 125.966 91.0964 125.663 91.0963 125.354V116.848C91.0949 116.547 91.0146 116.252 90.8635 115.991C90.7125 115.73 90.4958 115.514 90.2351 115.363C89.9744 115.212 89.6787 115.132 89.3775 115.131C89.0763 115.13 88.78 115.207 88.5182 115.356L80.8346 119.772C80.5726 119.923 80.355 120.14 80.2036 120.402C80.0522 120.664 79.9723 120.961 79.9719 121.264V121.264Z" fill="#EF7F6C"/>
<path d="M100.028 110.058V118.371C100.029 118.669 100.107 118.963 100.255 119.222C100.403 119.481 100.616 119.698 100.873 119.85C101.13 120.002 101.422 120.086 101.72 120.091C102.019 120.097 102.313 120.025 102.576 119.883L110.259 115.661C110.53 115.512 110.756 115.293 110.913 115.027C111.07 114.761 111.153 114.457 111.153 114.148V105.643C111.151 105.342 111.071 105.046 110.92 104.785C110.769 104.525 110.552 104.308 110.291 104.157C110.031 104.007 109.735 103.927 109.434 103.925C109.133 103.924 108.836 104.002 108.575 104.151L100.891 108.566C100.629 108.717 100.411 108.935 100.26 109.197C100.109 109.458 100.029 109.756 100.028 110.058V110.058Z" fill="#7EB753"/>
<path d="M118.623 153.642V161.955C118.624 162.254 118.702 162.547 118.85 162.806C118.998 163.065 119.211 163.282 119.468 163.434C119.724 163.586 120.016 163.67 120.315 163.675C120.613 163.681 120.908 163.61 121.171 163.467L128.773 159.214C129.044 159.065 129.269 158.847 129.426 158.58C129.584 158.314 129.666 158.011 129.666 157.702V149.196C129.665 148.895 129.585 148.6 129.434 148.339C129.282 148.078 129.066 147.862 128.805 147.711C128.544 147.56 128.249 147.48 127.948 147.479C127.646 147.478 127.35 147.556 127.088 147.704L119.445 152.109C119.185 152.269 118.971 152.495 118.827 152.765C118.682 153.034 118.612 153.337 118.623 153.642V153.642Z" fill="#FFAC99"/>
<path d="M126.889 157.038C127.609 155.364 127.207 153.584 125.991 153.061C124.776 152.539 123.207 153.472 122.488 155.145C121.768 156.819 122.17 158.599 123.385 159.122C124.6 159.645 126.169 158.712 126.889 157.038Z" fill="white"/>
<path d="M184.334 29.6599C185.02 29.3077 185.597 28.7743 186.001 28.1176C186.406 27.4609 186.622 26.706 186.628 25.9348V4.22399C186.627 3.48125 186.43 2.75199 186.057 2.10945C185.684 1.46691 185.149 0.933726 184.505 0.563452C183.862 0.193179 183.132 -0.00114319 182.389 5.05932e-06C181.646 0.00115331 180.917 0.197732 180.274 0.569994L146.272 20.4031C145.618 20.784 145.078 21.3334 144.708 21.9939C144.339 22.6544 144.153 23.4019 144.171 24.1586L145.318 51.6245L184.334 29.6599Z" fill="#68E1FD"/>
<path d="M145.318 51.6245V57.6029L153.417 44.621" fill="#68E1FD"/>
<path d="M151.103 28.4317L180.893 11.3493C181.184 11.1797 181.395 10.9016 181.481 10.5761C181.567 10.2506 181.52 9.90437 181.35 9.61364C181.266 9.46968 181.155 9.34368 181.022 9.24281C180.889 9.14195 180.738 9.06821 180.577 9.0258C180.251 8.94014 179.905 8.98729 179.614 9.15689L149.814 26.2495C149.542 26.4286 149.349 26.7056 149.275 27.0231C149.202 27.3405 149.253 27.6741 149.419 27.9547C149.585 28.2353 149.852 28.4413 150.166 28.5301C150.479 28.619 150.815 28.5837 151.103 28.4317V28.4317Z" fill="white"/>
<path d="M152.585 37.11L182.375 20.0275C182.666 19.8579 182.877 19.5798 182.963 19.2543C183.049 18.9288 183.002 18.5826 182.832 18.2919C182.662 18.0012 182.384 17.7897 182.059 17.7041C181.733 17.6184 181.387 17.6655 181.096 17.8351L151.296 34.9176C151.005 35.0872 150.794 35.3653 150.708 35.6908C150.622 36.0163 150.67 36.3625 150.839 36.6532C151.009 36.944 151.287 37.1554 151.612 37.2411C151.938 37.3267 152.284 37.2796 152.575 37.11H152.585Z" fill="white"/>
<path d="M169.038 95.6247C169.038 95.6247 178.691 106.79 179.036 114.849C179.381 122.908 167.962 137.057 167.962 137.057L160.583 125.415C160.583 125.415 170.185 115.488 160.583 107.845C160.583 107.845 157.295 94.9548 169.038 95.6653" fill="#CE5438"/>
<path d="M165.374 205.082C165.374 205.082 169.008 210.157 168.703 213.06C168.399 215.963 163.78 220.967 162.725 223.068C161.669 225.169 161.395 226.113 162.725 227.625C164.054 229.138 175.372 219.292 175.636 217.709C175.9 216.126 174.052 210.076 174.052 210.076L179.076 216.43L182.741 214.268L174.976 201.195" fill="#EA7554"/>
<path d="M163.933 227.798C164.237 227.494 173.2 224.388 173.2 224.388C173.2 224.388 177.412 220.003 177.26 218.298C177.107 216.592 175.595 209.985 174.022 210.056C172.448 210.127 172.276 218.907 172.276 218.907L163.933 227.798Z" fill="#FD8C68"/>
<path d="M153.265 213.436L152.118 226.854C152.118 226.854 149.215 228.975 148.505 228.793C147.794 228.61 145.663 228.052 145.642 227.717C145.622 227.382 146.657 218.237 146.373 217.993C146.089 217.75 141.633 224.976 140.283 225.098C138.933 225.22 128.255 219.059 129.27 216.714C130.285 214.37 135.431 215.598 137.969 215.577C140.506 215.557 144.059 214.106 145.906 209.751" fill="#EA7554"/>
<path d="M146.536 177.089L140.04 211.477C140.04 211.477 143.785 216.379 157.203 215.76L167.181 191.4" fill="#68E1FD"/>
<path d="M143.663 123.121C143.663 123.121 133.655 137.727 136.731 161.376C139.461 182.336 160.39 207.051 160.39 207.051C160.39 207.051 166.653 209.812 179.675 197.48L165.313 174.602C165.313 174.602 179.33 142.122 162.786 121.507" fill="#68E1FD"/>
<g opacity="0.55">
<path opacity="0.55" d="M105.905 105.765C100.83 105.328 97.3385 98.4464 98.0389 90.1031C98.7392 81.7598 103.307 75.548 108.473 75.9845C113.639 76.4209 117.04 83.3026 116.339 91.6459C115.639 99.9892 111.021 106.201 105.905 105.765ZM108.189 78.7554C104.748 78.4611 101.368 83.7695 100.82 90.3366C100.272 96.9036 102.698 102.699 106.149 102.994C109.6 103.288 112.97 97.9795 113.518 91.4125C114.066 84.8454 111.63 79.0295 108.189 78.7554Z" fill="#F2F2F2"/>
</g>
<path d="M115.446 95.0969C115.446 93.2192 112.563 93.2192 112.523 95.0969C112.523 96.1119 112.523 97.066 112.523 98.0506C112.411 97.8374 112.3 97.6243 112.198 97.4111C111.056 94.693 110.202 91.8626 109.65 88.9663C109.285 87.0886 106.605 87.9513 106.839 89.7377C107.033 91.1584 107.332 92.5629 107.732 93.9398L107.448 93.818C107.198 93.7362 106.934 93.7066 106.673 93.731C106.411 93.7554 106.157 93.8333 105.927 93.9599C105.696 94.0865 105.495 94.259 105.334 94.4668C105.173 94.6746 105.056 94.9133 104.992 95.168C104.849 95.6142 104.825 96.0898 104.921 96.5484H104.697C104.382 96.6555 104.097 96.8355 103.865 97.0737C103.633 97.3119 103.46 97.6017 103.361 97.9193C103.262 98.2369 103.24 98.5735 103.295 98.9014C103.351 99.2294 103.484 99.5395 103.682 99.8065C103.32 100.093 103.071 100.5 102.982 100.953C102.922 101.472 103.007 101.997 103.227 102.47C103.448 102.943 103.795 103.346 104.23 103.633C105.245 104.465 106.331 105.551 107.275 106.455C108.483 107.632 109.843 108.789 110.98 109.733C112.117 110.677 113.964 107.571 114.025 106.526C114.233 106.592 114.454 106.607 114.668 106.569C114.883 106.531 115.085 106.441 115.257 106.307C115.429 106.173 115.566 105.999 115.655 105.8C115.745 105.601 115.785 105.383 115.771 105.166C115.48 101.823 115.372 98.4667 115.446 95.0969Z" fill="#FFAC99"/>
<path d="M109.61 98.213C108.933 96.7785 108.297 95.3169 107.702 93.8282C107.58 93.5136 107.062 93.6557 107.194 93.9703C107.79 95.4996 108.443 97.0018 109.153 98.4769C109.295 98.7916 109.752 98.5175 109.61 98.213Z" fill="#AF594A"/>
<path d="M145.186 90.8745C145.186 90.8745 140.303 95.2695 138.416 98.3145C136.528 101.359 128.956 109.723 125.84 107.206C122.724 104.689 117.202 99.8877 117.202 99.8877C117.202 99.8877 109.316 105.308 110.097 110.951C110.097 110.951 117.101 125.263 128.012 122.116C138.923 118.97 141.643 114.839 141.643 114.839L143.288 124.146C143.288 124.146 156.828 128.389 163.111 122.116C163.111 122.116 167.231 95.3913 164.197 91.4023" fill="#EA7554"/>
<path d="M143.673 74.6853C143.572 74.9898 143.338 84.6932 146.637 85.6168C149.936 86.5405 155.539 84.2364 156.99 81.161C158.442 78.0855 156.371 68.3009 151.164 67.7325C145.957 67.1641 144.607 71.8534 143.673 74.6853Z" fill="#FFAC99"/>
<path d="M169.211 89.9813C168.277 87.8498 166.744 86.7029 167.11 84.1755C167.394 82.2369 167.881 80.3287 167.201 78.4002C166.521 76.4717 164.826 75.4973 163.222 74.3402C162.758 73.9988 162.323 73.6185 161.923 73.2034L161.578 72.6248C160.624 71.0008 159.934 69.0419 158.655 67.6412C157.378 66.3674 155.735 65.5261 153.955 65.2356C152.096 64.8982 150.188 64.941 148.346 65.3614C146.503 65.7819 144.765 66.5712 143.237 67.6818C143.237 67.6818 140.405 70.402 141.298 73.315C142.191 76.2281 145.724 75.1623 147.682 76.4818C149.855 77.9536 148.474 80.7448 147.561 82.5718C146.862 83.9404 146.513 85.4609 146.546 86.9972C146.574 88.4293 146.071 89.821 145.135 90.905C144.12 92.326 142.942 93.8079 142.861 95.6349C142.699 99.228 146.505 106.8 157.396 103.988C158.096 103.806 158.827 103.592 159.558 103.349C161.883 102.709 164.063 101.631 165.983 100.172C169.038 97.7867 170.814 93.6455 169.211 89.9813Z" fill="#3A3A3A"/>
<path d="M145.196 184.173C145.196 184.173 156.655 204.006 160.421 207.031L157.223 215.76C157.223 215.76 143.897 197.084 145.196 184.173Z" fill="#68E1FD"/>
<path d="M165.069 173.556C161.41 165.831 159.375 157.436 159.091 148.892C159.091 148.212 158.005 148.212 158.076 148.892C158.361 157.618 160.434 166.192 164.166 174.084C164.45 174.703 165.313 174.165 165.069 173.556Z" fill="#15156D"/>
</svg>
