<svg width="406" height="306" viewBox="0 0 406 306" fill="none" xmlns="http://www.w3.org/2000/svg">
<path d="M197.194 296.257L14.7784 188.454C8.97261 185.186 3.98896 179.837 9.65265 176.345L192.728 70.785C195.479 69.0798 199.65 67.9633 202.442 69.5873L393.932 180.75C399.737 184.12 400.783 193.539 394.947 196.919L221.27 296.115C217.616 298.232 213.474 299.359 209.251 299.384C205.028 299.409 200.873 298.331 197.194 296.257Z" fill="#3189FF"/>
<path d="M144.983 172.65C144.983 172.65 145.744 174.488 143.003 175.99C140.263 177.492 93.6236 209.84 93.6236 209.84L82.0628 203.161L138.72 171.402L144.983 172.65Z" fill="url(#paint0_linear)"/>
<path d="M226.01 157.71C226.01 157.71 226.457 170.022 222.366 173.645C218.276 177.269 139.197 232.698 139.197 232.698L114.695 217.96L226.01 157.71Z" fill="url(#paint1_linear)"/>
<path d="M276.862 235.215L219.555 285.153C219.687 286.777 181.309 262.052 181.309 262.052L253.374 226.527" fill="url(#paint2_linear)"/>
<path d="M219.727 7.48961C204.929 16.2592 168.297 37.9396 157.345 44.3037C156.41 44.8436 155.635 45.6226 155.1 46.5608C154.565 47.499 154.289 48.5626 154.3 49.6426V200.025C154.077 203.07 157.548 205.932 160.39 204.318L221.95 169.24C224.427 167.819 226.01 165.819 226.01 162.967V11.0726C226.011 10.3378 225.816 9.6161 225.448 8.98067C225.079 8.34525 224.548 7.8188 223.91 7.45484C223.272 7.09087 222.549 6.90236 221.814 6.90847C221.079 6.91458 220.359 7.11508 219.727 7.48961V7.48961Z" fill="#68E1FD"/>
<path d="M225.604 9.26585L206.045 20.5831V24.7649C206.041 25.1174 205.945 25.4629 205.767 25.7672C205.589 26.0716 205.335 26.3243 205.03 26.5006L190.008 35.1687C189.806 35.2978 189.573 35.3695 189.333 35.3761C189.094 35.3826 188.857 35.3238 188.648 35.2059C188.439 35.088 188.267 34.9154 188.149 34.7068C188.031 34.4982 187.972 34.2613 187.978 34.0217V30.9767L159.873 47.44C159.604 47.5977 159.381 47.8231 159.226 48.0938C159.071 48.3644 158.989 48.6709 158.99 48.9828V199.294C158.996 199.505 159.058 199.71 159.167 199.889C159.277 200.069 159.431 200.217 159.615 200.319C159.799 200.422 160.007 200.474 160.217 200.473C160.428 200.471 160.634 200.415 160.817 200.309L226.01 162.521C226.12 163.687 225.91 164.861 225.404 165.918C224.898 166.974 224.115 167.873 223.138 168.519C219.758 170.671 160.37 204.278 160.37 204.278C160.37 204.278 155.671 206.399 154.28 200.796V49.5614C154.278 48.5837 154.508 47.6194 154.951 46.7478C155.393 45.8761 156.037 45.122 156.828 44.5473C159.548 42.568 219.707 7.4084 219.707 7.4084C220.212 7.12652 220.77 6.95079 221.346 6.89199C221.922 6.8332 222.504 6.89256 223.056 7.06645C223.608 7.24034 224.119 7.5251 224.557 7.90329C224.995 8.28147 225.351 8.74513 225.604 9.26585V9.26585Z" fill="#124577"/>
<path d="M191.023 74.6521C194.352 71.2316 197.945 69.4249 201.305 69.4249C201.939 69.4235 202.572 69.4881 203.193 69.6177C205.785 70.2499 208.054 71.8144 209.567 74.0127C211.046 71.9482 212.65 69.9755 214.368 68.1054C211.872 65.1808 208.49 63.1497 204.736 62.3199C198.26 60.9496 191.49 63.477 185.674 69.4249C183.944 71.212 182.397 73.1671 181.056 75.2611C183.187 76.5502 185.258 77.9204 187.328 79.3211C188.402 77.6464 189.64 76.0823 191.023 74.6521V74.6521Z" fill="#56403D"/>
<path d="M191.053 127.249C187.491 126.184 184.537 122.895 182.68 117.901C180.487 111.994 180.152 104.605 181.736 97.104C182.644 92.6761 184.251 88.4208 186.496 84.4977C184.466 83.1274 182.345 81.747 180.213 80.4377C177.478 85.1246 175.524 90.2258 174.428 95.5408C172.55 104.412 172.997 113.263 175.676 120.479C178.356 127.696 182.893 132.456 188.617 134.273C189.369 131.929 190.15 129.564 191.053 127.249Z" fill="#FFA197"/>
<path d="M219.24 80.3767C218.306 77.8027 216.996 75.381 215.353 73.1906C213.604 75.1173 211.976 77.1512 210.481 79.2806C211.196 80.4499 211.801 81.6834 212.287 82.965C214.48 88.8723 214.815 96.2615 213.231 103.762C211.648 111.263 208.349 117.881 203.944 122.398C200.28 126.163 196.301 127.97 192.647 127.564C191.713 129.909 190.921 132.304 190.17 134.669H190.221C191.362 134.911 192.526 135.034 193.692 135.035C199.072 135.035 204.502 132.456 209.283 127.554C214.662 122.042 218.651 114.125 220.529 105.224C222.407 96.3224 221.97 87.5934 219.24 80.3767Z" fill="#F2F2F2"/>
<path d="M206.081 103.815C206.597 99.1795 204.942 95.1912 202.384 94.9066C199.827 94.622 197.336 98.149 196.82 102.784C196.304 107.42 197.959 111.408 200.516 111.693C203.074 111.977 205.565 108.45 206.081 103.815Z" fill="#F2F2F2"/>
<path d="M220.174 139.328L177.138 163.363C176.823 163.57 176.598 163.889 176.508 164.255C176.419 164.622 176.471 165.008 176.655 165.337C176.839 165.667 177.141 165.914 177.499 166.03C177.858 166.146 178.248 166.121 178.589 165.962L221.625 141.926C221.94 141.719 222.165 141.4 222.255 141.034C222.344 140.668 222.292 140.281 222.108 139.952C221.924 139.623 221.622 139.376 221.264 139.26C220.905 139.144 220.515 139.168 220.174 139.328Z" fill="#F2F2F2"/>
<path d="M219.484 133.715L176.448 157.75C176.133 157.957 175.908 158.276 175.818 158.642C175.729 159.009 175.781 159.395 175.965 159.724C176.149 160.054 176.45 160.301 176.809 160.417C177.168 160.533 177.557 160.508 177.899 160.349L220.935 136.313C221.25 136.106 221.475 135.787 221.565 135.421C221.654 135.055 221.602 134.668 221.418 134.339C221.234 134.01 220.932 133.763 220.573 133.647C220.215 133.531 219.825 133.555 219.484 133.715V133.715Z" fill="#F2F2F2"/>
<path d="M111.843 193.092L143.003 175.99C143.602 175.661 144.101 175.178 144.449 174.59C144.797 174.003 144.982 173.333 144.983 172.65V115.536C144.98 114.868 144.803 114.213 144.468 113.635C144.133 113.057 143.653 112.577 143.074 112.243C142.496 111.909 141.84 111.733 141.172 111.732C140.504 111.731 139.848 111.905 139.268 112.238L108.108 130.223C107.528 130.558 107.047 131.039 106.712 131.618C106.377 132.196 106.201 132.853 106.199 133.522V189.753C106.201 190.414 106.375 191.063 106.703 191.637C107.032 192.211 107.503 192.69 108.072 193.026C108.641 193.363 109.288 193.546 109.949 193.558C110.61 193.569 111.262 193.409 111.843 193.092V193.092Z" fill="#FDD400"/>
<path d="M113.731 153.315V166.987C113.731 170.955 119.902 170.966 119.902 166.987V153.315C119.902 149.336 113.731 149.336 113.731 153.315Z" fill="#56403D"/>
<path d="M122.125 139.277V161.343C122.125 165.312 128.296 165.322 128.296 161.343V139.277C128.296 135.309 122.125 135.298 122.125 139.277Z" fill="#FFA197"/>
<path d="M132.062 123.291V157.162C132.062 161.13 138.233 161.14 138.233 157.162V123.291C138.243 119.322 132.062 119.312 132.062 123.291Z" fill="#F2F2F2"/>
<path d="M124.388 170.813L116.755 174.873C115.669 175.442 116.634 177.086 117.71 176.518L125.342 172.458C126.428 171.889 125.474 170.255 124.388 170.813Z" fill="#F2F2F2"/>
<path d="M137.766 169.808C130.668 173.618 123.498 177.282 116.258 180.801C115.162 181.339 116.116 182.973 117.212 182.445C124.453 178.92 131.622 175.256 138.72 171.453C139.796 170.874 138.842 169.24 137.766 169.808Z" fill="#F2F2F2"/>
<path d="M132.965 104.625L165.821 86.5885C166.45 86.2395 166.975 85.7294 167.343 85.1105C167.71 84.4916 167.906 83.7862 167.911 83.0665V22.8262C167.9 22.1254 167.706 21.4395 167.351 20.8354C166.995 20.2313 166.489 19.7296 165.882 19.3791C165.275 19.0285 164.588 18.8411 163.887 18.8351C163.186 18.8291 162.495 19.0047 161.882 19.3448L129.017 38.305C128.405 38.6584 127.895 39.1655 127.539 39.7761C127.183 40.3867 126.993 41.0796 126.987 41.7864V101.093C126.995 101.791 127.182 102.475 127.532 103.079C127.881 103.683 128.38 104.187 128.981 104.543C129.582 104.898 130.264 105.092 130.962 105.106C131.66 105.121 132.35 104.955 132.965 104.625V104.625Z" fill="#FFA197"/>
<path d="M134.995 62.665V77.0881C134.995 81.2801 141.501 81.2801 141.501 77.0881V62.665C141.471 58.473 134.995 58.473 134.995 62.665Z" fill="#56403D"/>
<path d="M143.805 47.8765V71.1403C143.805 75.3322 150.311 75.3322 150.311 71.1403V47.8765C150.311 43.6845 143.805 43.6744 143.805 47.8765Z" fill="#68E1FD"/>
<path d="M154.28 31.0072V66.725C154.28 70.917 160.786 70.917 160.786 66.725V31.0072C160.806 26.8254 154.28 26.8152 154.28 31.0072Z" fill="#F2F2F2"/>
<path d="M146.16 81.1279L138.111 85.3604C136.974 85.9593 137.979 87.6848 139.126 87.0859L147.175 82.8534C148.352 82.2545 147.337 80.529 146.16 81.1279Z" fill="#F2F2F2"/>
<path d="M160.299 80.0723C152.815 84.0849 145.253 87.952 137.614 91.6737C136.457 92.2421 137.472 93.9676 138.629 93.3992C146.268 89.6843 153.83 85.8172 161.314 81.7978C162.4 81.1888 161.436 79.4633 160.299 80.0723Z" fill="#F2F2F2"/>
<path d="M274.05 212.601C274.588 213.88 276.994 231.652 276.841 235.134C276.689 238.615 271.421 238.95 269.807 238.818C268.193 238.686 265.027 237.215 263.017 237.143C261.007 237.072 249.903 234.971 250.218 232.068C250.532 229.166 252.461 226.293 254.958 226.141C257.455 225.989 264.235 226.425 264.235 226.425L263.555 210.317" fill="#FF6753"/>
<path d="M271.746 128.701C273.378 136.696 274.376 144.807 274.73 152.959C274.903 161.374 277.481 224.07 277.481 224.07C277.481 224.07 272.619 227.004 259.129 223.055C257.171 222.487 255.344 164.804 255.344 164.804L257.079 136.587" fill="#68E1FD"/>
<path d="M253.415 226.516C254.971 228.241 256.863 229.628 258.975 230.594C261.087 231.559 263.375 232.082 265.697 232.129C268.218 232.102 270.732 231.848 273.208 231.368C274.397 231.234 275.546 230.862 276.587 230.272C276.77 231.907 276.861 233.55 276.862 235.195C276.679 238.676 271.421 238.971 269.757 238.828C268.092 238.686 264.986 237.194 262.987 237.103C260.987 237.012 249.893 234.839 250.228 231.906C250.321 230.826 250.656 229.781 251.207 228.848C251.759 227.915 252.514 227.118 253.415 226.516V226.516Z" fill="#42210B"/>
<path d="M226.781 91.085C226.781 91.085 224.315 87.4513 224.315 85.6649C224.315 83.8785 226.487 86.2232 226.487 86.2232L226.203 81.7267C226.203 81.7267 227.878 84.3454 228.73 85.5736C229.583 86.8017 232.303 92.6177 232.79 93.6936C233.277 94.7695 237.672 97.5404 237.672 97.5404C237.672 97.5404 236.404 101.671 235.064 101.956C233.724 102.24 227.137 96.3021 227.137 96.3021L226.781 91.085Z" fill="#F04900"/>
<path d="M235.033 92.6379C235.033 92.6379 230.131 96.9821 230.973 101.915C230.973 101.915 237.145 114.176 243.813 116.196C250.482 118.216 254.288 105.082 252.461 103.153C250.634 101.225 235.033 92.6379 235.033 92.6379Z" fill="#F7944B"/>
<path d="M219.555 105.356C219.555 105.356 217.271 103.255 217.667 102.615C218.063 101.976 219.078 96.089 218.59 94.9116C217.728 92.8105 215.545 97.4795 215.545 97.4795L214.926 89.2682C214.926 89.2682 212.531 91.8666 212.642 93.3282C212.754 94.7898 212.521 104.625 212.642 105.356C212.764 106.087 214.815 111.385 214.815 111.385" fill="#F04900"/>
<path d="M246.584 233.002C247.061 234.302 248.563 252.176 248.228 255.647C247.893 259.118 242.626 259.179 241.022 258.966C239.418 258.753 236.333 257.119 234.333 256.936C232.333 256.753 221.351 254.104 221.808 251.181C222.265 248.258 224.335 245.527 226.883 245.507C229.431 245.487 236.13 246.258 236.13 246.258L236.272 230.14" fill="#FF6753"/>
<path d="M246.239 134.984C240.59 151.516 236.645 168.582 234.465 185.916C233.623 192.737 231.278 238.839 231.278 238.839C231.278 238.839 239.834 244.736 250.177 241.407C250.177 241.407 257.932 185.196 258.206 184.089C262.185 168.134 262.54 158.217 263.494 134.091" fill="#68E1FD"/>
<path d="M245.214 117.475C244.757 110.806 242.341 107.325 243.874 100.829C248.675 95.6017 257.729 89.2884 258.693 89.055L263.768 90.2425C265.914 90.7404 267.835 91.9361 269.229 93.6424C270.623 95.3487 271.412 97.4693 271.472 99.6719C271.746 110.015 272.132 127.29 271.716 128.67C271.299 130.051 261.16 138.739 246.209 134.953C245.813 129.158 245.63 123.311 245.214 117.475Z" fill="#FDD400"/>
<path d="M247.883 75.2205C247.883 75.2205 245.772 90.7297 251.517 92.0391C257.262 93.3484 263.514 86.5479 263.809 83.371C264.103 80.194 255.496 69.6279 247.883 75.2205Z" fill="#F04900"/>
<path d="M244.869 78.5396C244.644 78.5231 244.425 78.4597 244.226 78.3534C244.027 78.247 243.853 78.1002 243.714 77.9223C243.575 77.7444 243.475 77.5394 243.421 77.3206C243.366 77.1017 243.358 76.8739 243.397 76.6517C243.986 73.4342 246.188 66.9179 254.369 66.7656C260.622 66.654 264.519 69.4249 266.397 73.6169L266.509 73.8605L266.975 75.2206C267.561 77.2427 267.754 79.3581 267.544 81.4527C267.28 87.3498 262.824 90.6587 257.16 91.3388C257.16 91.3388 259.475 82.6301 255.709 84.0206C251.943 85.4112 248.777 84.9646 249.964 78.9456L244.869 78.5396Z" fill="#844308"/>
<path d="M260.297 74.4187L259.749 75.0175C259.749 75.0175 259.738 74.6826 260.297 74.4187Z" fill="#844308"/>
<path d="M262.357 72.1552C263.464 71.8203 276.242 67.0193 279.947 73.1702C283.652 79.3211 280.444 88.6693 284.951 89.9279C289.458 91.1865 302.46 90.476 303.658 96.2818C304.825 101.905 298.938 105.163 300.328 107.741C303.871 109.974 306.672 112.928 305.079 117.445C304.154 119.797 302.438 121.753 300.227 122.976C294.868 126.143 287.59 123.707 283.175 119.931C279.308 116.653 279.653 112.826 281.145 108.37C282.302 105.001 284.302 100.9 280.536 98.4336C274.933 94.7593 268.427 98.9614 266.529 94.7593C264.631 90.5572 272.832 75.9513 266.224 74.6521C262.57 73.9315 260.987 74.1345 260.287 74.4491L262.357 72.1552Z" fill="#844308"/>
<path d="M214.053 111.04C214.463 109.694 215.17 108.458 216.122 107.423C217.075 106.388 218.248 105.581 219.555 105.062C224.406 109.66 230.354 114.653 232.303 113.872C235.165 112.725 240.88 99.3877 249 98.7178C257.12 98.0479 256.897 109.284 256.897 109.284C256.897 109.284 242.686 131.157 235.033 131.533C228.842 131.837 217.586 120.967 213.17 115.719C213.295 114.132 213.591 112.563 214.053 111.04Z" fill="#FDD400"/>
<path d="M221.798 251.191C221.932 250.182 222.272 249.212 222.795 248.339C223.319 247.466 224.016 246.71 224.843 246.116C226.752 248.874 229.61 250.832 232.871 251.617C237.971 252.741 243.29 252.331 248.157 250.44C248.278 252.18 248.301 253.925 248.228 255.667C247.893 259.139 242.626 259.199 241.022 258.986C239.418 258.773 236.333 257.139 234.333 256.956C232.333 256.774 221.341 254.114 221.798 251.191Z" fill="#42210B"/>
<defs>
<linearGradient id="paint0_linear" x1="92.9842" y1="203.263" x2="115.751" y2="187.388" gradientUnits="userSpaceOnUse">
<stop stop-color="#3189FF"/>
</linearGradient>
<linearGradient id="paint1_linear" x1="13614.5" y1="17046.6" x2="21384.5" y2="8538.83" gradientUnits="userSpaceOnUse">
<stop stop-color="#3189FF"/>
</linearGradient>
<linearGradient id="paint2_linear" x1="18404" y1="16300.6" x2="22852.9" y2="10960.7" gradientUnits="userSpaceOnUse">
<stop stop-color="#3189FF"/>
</linearGradient>
</defs>
</svg>
